<svg xmlns="http://www.w3.org/2000/svg" xmlns:xlink="http://www.w3.org/1999/xlink" width="500" zoomAndPan="magnify" viewBox="0 0 375 374.999991" height="500" preserveAspectRatio="xMidYMid meet" version="1.0"><path fill="#ed1c40" d="M 239.429688 247.132812 C 228.292969 245.171875 216.773438 238.011719 214.515625 226.203125 C 213.246094 215.929688 215.226562 205.390625 220.375 196.378906 L 236.019531 167.042969 C 239.082031 161.046875 231.972656 153.738281 226.453125 158.625 C 219.507812 165.222656 216.816406 174.71875 212.5 182.988281 C 206.894531 194.449219 202.363281 206.53125 195.511719 217.335938 C 192.144531 222.644531 186.277344 228.335938 179.433594 225.882812 C 171.839844 223.5625 173.855469 214.710938 176.335938 209.234375 C 180.5625 196.761719 187.621094 185.101562 189.304688 171.875 C 192.082031 164.289062 180.886719 158.753906 177.03125 166.160156 L 162.097656 201.515625 C 157.742188 211.304688 156.484375 222.132812 152.265625 231.835938 C 148.3125 239.492188 138.199219 240.496094 130.5625 239.585938 C 122.296875 238.476562 114.328125 231.835938 114.675781 223.007812 C 113.808594 210.230469 119.597656 198.320312 122.488281 186.132812 C 126.394531 172.90625 131.03125 159.851562 136.5 147.1875 C 140.605469 138.832031 147.125 128.871094 157.636719 129.035156 C 167.011719 127.996094 174.523438 134.75 183.011719 137.226562 C 193.132812 138.890625 197.25 125.449219 207.230469 126.261719 C 214.933594 125.898438 219.167969 135.722656 226.832031 134.179688 C 235.757812 131.234375 246.84375 129.847656 254.734375 136 C 261.765625 142.617188 259.457031 153.390625 257.027344 161.601562 C 251.589844 179.621094 239.8125 195.316406 236.296875 213.945312 C 234.644531 220.398438 236.867188 229.382812 244.863281 229.710938 C 251.246094 230.648438 261.183594 231.824219 261.601562 239.96875 C 258.285156 248.230469 246.894531 248.542969 239.464844 247.054688 Z M 239.429688 247.132812 " fill-opacity="1" fill-rule="nonzero"/></svg>