<svg xmlns="http://www.w3.org/2000/svg" xmlns:xlink="http://www.w3.org/1999/xlink" width="500" zoomAndPan="magnify" viewBox="0 0 375 374.999991" height="500" preserveAspectRatio="xMidYMid meet" version="1.0"><defs><g/><clipPath id="3cb09086a2"><path d="M 102 86.542969 L 251.613281 86.542969 L 251.613281 235 L 102 235 Z M 102 86.542969 " clip-rule="nonzero"/></clipPath><clipPath id="dbf27c9881"><path d="M 170 226 L 179 226 L 179 235.042969 L 170 235.042969 Z M 170 226 " clip-rule="nonzero"/></clipPath></defs><rect x="-37.5" width="450" fill="#ffffff" y="-37.499999" height="449.999989" fill-opacity="1"/><rect x="-37.5" width="450" fill="#ffffff" y="-37.499999" height="449.999989" fill-opacity="1"/><g clip-path="url(#3cb09086a2)"><path fill="#1ba553" d="M 176.558594 86.679688 C 134.917969 86.820312 101.636719 120.636719 102.179688 162.222656 C 102.230469 166.410156 102.628906 170.5625 103.382812 174.679688 C 104.136719 178.796875 105.230469 182.824219 106.664062 186.757812 C 108.101562 190.691406 109.855469 194.476562 111.929688 198.113281 C 114.007812 201.75 116.375 205.1875 119.03125 208.425781 C 119.453125 208.9375 119.785156 209.5 120.035156 210.113281 C 120.285156 210.726562 120.441406 211.363281 120.496094 212.023438 C 120.554688 212.683594 120.515625 213.335938 120.375 213.984375 C 120.238281 214.632812 120.003906 215.246094 119.679688 215.824219 L 113.25 227.332031 C 111.46875 230.523438 114.371094 234.292969 117.917969 233.390625 L 139.695312 227.855469 C 141.265625 227.457031 142.777344 227.613281 144.230469 228.320312 C 148.628906 230.453125 153.195312 232.136719 157.929688 233.371094 C 158.21875 233.445312 158.515625 233.492188 158.820312 233.511719 C 159.121094 233.527344 159.421875 233.515625 159.71875 233.476562 C 160.019531 233.433594 160.3125 233.363281 160.597656 233.265625 C 160.882812 233.164062 161.15625 233.039062 161.414062 232.886719 C 161.675781 232.734375 161.917969 232.558594 162.144531 232.355469 C 162.371094 232.15625 162.574219 231.9375 162.757812 231.695312 C 162.9375 231.453125 163.09375 231.199219 163.226562 230.925781 C 163.359375 230.65625 163.460938 230.375 163.539062 230.082031 C 163.613281 229.789062 163.660156 229.492188 163.679688 229.191406 C 163.695312 228.890625 163.683594 228.589844 163.644531 228.292969 C 163.601562 227.992188 163.53125 227.703125 163.433594 227.417969 C 163.332031 227.132812 163.207031 226.859375 163.054688 226.597656 C 162.902344 226.339844 162.722656 226.097656 162.523438 225.871094 C 162.324219 225.644531 162.101562 225.441406 161.859375 225.257812 C 161.621094 225.078125 161.363281 224.921875 161.089844 224.789062 C 160.820312 224.660156 160.539062 224.554688 160.246094 224.480469 C 159.097656 224.179688 157.964844 223.851562 156.847656 223.492188 C 155.214844 222.96875 153.609375 222.386719 152.027344 221.738281 C 150.441406 221.089844 148.886719 220.378906 147.359375 219.609375 C 145.832031 218.839844 144.335938 218.011719 142.871094 217.125 C 141.410156 216.234375 139.984375 215.292969 138.59375 214.292969 C 137.207031 213.296875 135.859375 212.242188 134.550781 211.140625 C 133.246094 210.035156 131.984375 208.882812 130.769531 207.679688 C 129.550781 206.476562 128.386719 205.226562 127.265625 203.933594 C 126.148438 202.636719 125.085938 201.300781 124.070312 199.921875 C 123.058594 198.546875 122.101562 197.128906 121.199219 195.675781 C 120.296875 194.222656 119.453125 192.738281 118.667969 191.21875 C 117.882812 189.699219 117.160156 188.152344 116.496094 186.578125 C 115.832031 185.003906 115.230469 183.402344 114.691406 181.78125 C 114.15625 180.15625 113.679688 178.515625 113.269531 176.855469 C 112.863281 175.195312 112.519531 173.523438 112.242188 171.835938 C 111.960938 170.148438 111.75 168.457031 111.605469 166.753906 C 111.460938 165.050781 111.382812 163.34375 111.371094 161.632812 C 111.152344 125.523438 140.105469 96.167969 176.261719 95.867188 C 212.519531 95.566406 242.035156 124.71875 242.261719 160.808594 C 242.464844 193.050781 218.785156 220.265625 187.953125 225.632812 C 187.417969 225.726562 186.917969 225.910156 186.449219 226.179688 C 185.980469 226.449219 185.570312 226.792969 185.222656 227.207031 C 184.871094 227.621094 184.605469 228.082031 184.421875 228.59375 C 184.234375 229.101562 184.144531 229.625 184.144531 230.167969 C 184.144531 230.503906 184.179688 230.832031 184.25 231.160156 C 184.324219 231.488281 184.429688 231.804688 184.570312 232.105469 C 184.710938 232.410156 184.886719 232.695312 185.089844 232.960938 C 185.292969 233.226562 185.519531 233.46875 185.777344 233.683594 C 186.035156 233.902344 186.308594 234.085938 186.605469 234.242188 C 186.902344 234.398438 187.214844 234.523438 187.535156 234.609375 C 187.859375 234.699219 188.1875 234.75 188.523438 234.765625 C 188.859375 234.785156 189.191406 234.765625 189.523438 234.707031 C 224.578125 228.726562 251.347656 198.371094 251.460938 161.46875 C 251.589844 120.101562 217.980469 86.539062 176.558594 86.679688 Z M 176.558594 86.679688 " fill-opacity="1" fill-rule="nonzero"/></g><path fill="#1ba553" d="M 165.121094 129.453125 L 165.152344 129.511719 L 169.054688 137.242188 C 169.476562 138.082031 169.753906 138.960938 169.890625 139.890625 C 170.027344 140.816406 170.011719 141.742188 169.847656 142.667969 C 169.679688 143.589844 169.375 144.460938 168.925781 145.285156 C 168.476562 146.109375 167.90625 146.839844 167.21875 147.476562 C 166.535156 148.113281 165.96875 148.835938 165.519531 149.65625 C 165.070312 150.472656 164.761719 151.339844 164.59375 152.253906 C 164.425781 153.171875 164.40625 154.089844 164.539062 155.015625 C 164.667969 155.9375 164.941406 156.816406 165.355469 157.652344 C 167.699219 162.351562 171.757812 168.828125 177.953125 173.5 C 178.648438 174.027344 179.402344 174.441406 180.222656 174.742188 C 181.039062 175.039062 181.886719 175.210938 182.757812 175.257812 C 183.625 175.304688 184.484375 175.21875 185.332031 175.007812 C 186.175781 174.796875 186.972656 174.464844 187.71875 174.011719 L 190.230469 172.484375 C 191.371094 171.789062 192.609375 171.382812 193.941406 171.257812 C 195.273438 171.136719 196.5625 171.3125 197.8125 171.785156 L 207.804688 175.582031 C 208.339844 175.78125 208.84375 176.035156 209.328125 176.335938 C 209.808594 176.636719 210.257812 176.984375 210.671875 177.375 C 211.085938 177.765625 211.457031 178.191406 211.789062 178.652344 C 212.117188 179.117188 212.398438 179.609375 212.632812 180.125 C 212.867188 180.644531 213.046875 181.179688 213.175781 181.734375 C 213.300781 182.289062 213.375 182.851562 213.390625 183.417969 C 213.40625 183.988281 213.367188 184.550781 213.273438 185.113281 C 213.179688 185.671875 213.03125 186.21875 212.828125 186.75 C 212.710938 187.054688 212.578125 187.351562 212.429688 187.640625 L 209.660156 193.003906 C 209.4375 193.4375 209.175781 193.847656 208.882812 194.238281 C 208.589844 194.628906 208.265625 194.988281 207.910156 195.324219 C 207.554688 195.660156 207.175781 195.960938 206.769531 196.234375 C 206.359375 196.503906 205.933594 196.738281 205.488281 196.9375 C 205.042969 197.136719 204.582031 197.296875 204.109375 197.417969 C 203.636719 197.539062 203.15625 197.621094 202.671875 197.660156 C 202.183594 197.699219 201.695312 197.699219 201.210938 197.65625 C 200.722656 197.617188 200.242188 197.535156 199.769531 197.410156 C 184.078125 193.355469 146.675781 179.261719 143.664062 136.640625 C 143.605469 135.792969 143.667969 134.957031 143.855469 134.128906 C 144.039062 133.304688 144.339844 132.519531 144.757812 131.78125 C 145.171875 131.042969 145.6875 130.378906 146.300781 129.789062 C 146.910156 129.203125 147.59375 128.714844 148.347656 128.324219 L 153.445312 125.710938 C 153.953125 125.449219 154.476562 125.242188 155.027344 125.085938 C 155.574219 124.929688 156.128906 124.828125 156.699219 124.78125 C 157.265625 124.734375 157.832031 124.742188 158.398438 124.808594 C 158.960938 124.875 159.515625 124.992188 160.058594 125.167969 C 160.601562 125.339844 161.121094 125.566406 161.617188 125.839844 C 162.117188 126.117188 162.582031 126.4375 163.015625 126.804688 C 163.449219 127.175781 163.84375 127.582031 164.199219 128.027344 C 164.554688 128.472656 164.859375 128.945312 165.121094 129.453125 Z M 165.121094 129.453125 " fill-opacity="1" fill-rule="nonzero"/><g clip-path="url(#dbf27c9881)"><path fill="#1ba553" d="M 178.476562 230.816406 C 178.476562 231.09375 178.449219 231.367188 178.394531 231.640625 C 178.339844 231.910156 178.261719 232.175781 178.15625 232.429688 C 178.046875 232.6875 177.917969 232.929688 177.765625 233.160156 C 177.609375 233.390625 177.433594 233.605469 177.238281 233.800781 C 177.042969 233.996094 176.828125 234.171875 176.597656 234.324219 C 176.367188 234.480469 176.125 234.609375 175.867188 234.714844 C 175.609375 234.820312 175.347656 234.902344 175.074219 234.957031 C 174.800781 235.011719 174.527344 235.035156 174.25 235.035156 C 173.972656 235.035156 173.695312 235.011719 173.425781 234.957031 C 173.152344 234.902344 172.886719 234.820312 172.632812 234.714844 C 172.375 234.609375 172.132812 234.480469 171.902344 234.324219 C 171.667969 234.171875 171.457031 233.996094 171.261719 233.800781 C 171.0625 233.605469 170.886719 233.390625 170.734375 233.160156 C 170.582031 232.929688 170.449219 232.6875 170.34375 232.429688 C 170.238281 232.175781 170.15625 231.910156 170.101562 231.640625 C 170.050781 231.367188 170.023438 231.09375 170.023438 230.816406 C 170.023438 230.539062 170.050781 230.261719 170.101562 229.992188 C 170.15625 229.71875 170.238281 229.457031 170.34375 229.199219 C 170.449219 228.941406 170.582031 228.699219 170.734375 228.46875 C 170.886719 228.238281 171.0625 228.027344 171.261719 227.828125 C 171.457031 227.632812 171.667969 227.457031 171.902344 227.304688 C 172.132812 227.152344 172.375 227.019531 172.632812 226.914062 C 172.886719 226.808594 173.152344 226.726562 173.425781 226.675781 C 173.695312 226.621094 173.972656 226.59375 174.25 226.59375 C 174.527344 226.59375 174.800781 226.621094 175.074219 226.675781 C 175.347656 226.726562 175.609375 226.808594 175.867188 226.914062 C 176.125 227.019531 176.367188 227.152344 176.597656 227.304688 C 176.828125 227.457031 177.042969 227.632812 177.238281 227.828125 C 177.433594 228.027344 177.609375 228.238281 177.765625 228.46875 C 177.917969 228.699219 178.046875 228.941406 178.15625 229.199219 C 178.261719 229.457031 178.339844 229.71875 178.394531 229.992188 C 178.449219 230.261719 178.476562 230.539062 178.476562 230.816406 Z M 178.476562 230.816406 " fill-opacity="1" fill-rule="nonzero"/></g><g fill="#ff0000" fill-opacity="1"><g transform="translate(72.239167, 294.960229)"><g><path d="M 17.953125 2.28125 C 15.171875 2.28125 12.832031 1.78125 10.9375 0.78125 C 9.039062 -0.207031 7.519531 -1.519531 6.375 -3.15625 C 5.238281 -4.800781 4.414062 -6.601562 3.90625 -8.5625 C 3.40625 -10.519531 3.15625 -12.46875 3.15625 -14.40625 C 3.15625 -16.8125 3.515625 -19.234375 4.234375 -21.671875 C 4.953125 -24.117188 5.972656 -26.457031 7.296875 -28.6875 C 8.628906 -30.925781 10.203125 -32.921875 12.015625 -34.671875 C 13.828125 -36.421875 15.816406 -37.800781 17.984375 -38.8125 C 20.148438 -39.820312 22.4375 -40.328125 24.84375 -40.328125 C 26.695312 -40.328125 28.335938 -39.925781 29.765625 -39.125 C 31.203125 -38.332031 32.34375 -37.238281 33.1875 -35.84375 C 34.03125 -34.457031 34.453125 -32.835938 34.453125 -30.984375 C 34.453125 -29.753906 34.226562 -28.53125 33.78125 -27.3125 C 33.34375 -26.09375 32.742188 -24.972656 31.984375 -23.953125 C 31.441406 -23.203125 30.875 -22.769531 30.28125 -22.65625 C 29.6875 -22.550781 29.164062 -22.664062 28.71875 -23 C 28.28125 -23.34375 28.03125 -23.816406 27.96875 -24.421875 C 27.90625 -25.035156 28.128906 -25.679688 28.640625 -26.359375 C 29.097656 -27.035156 29.441406 -27.765625 29.671875 -28.546875 C 29.910156 -29.328125 30.03125 -30.050781 30.03125 -30.71875 C 30.03125 -31.988281 29.609375 -33.171875 28.765625 -34.265625 C 27.921875 -35.359375 26.507812 -35.90625 24.53125 -35.90625 C 22.25 -35.90625 20.097656 -35.238281 18.078125 -33.90625 C 16.054688 -32.582031 14.273438 -30.847656 12.734375 -28.703125 C 11.203125 -26.554688 9.992188 -24.195312 9.109375 -21.625 C 8.222656 -19.050781 7.78125 -16.519531 7.78125 -14.03125 C 7.78125 -12.132812 8.125 -10.269531 8.8125 -8.4375 C 9.507812 -6.601562 10.671875 -5.109375 12.296875 -3.953125 C 13.921875 -2.796875 16.125 -2.257812 18.90625 -2.34375 C 22.144531 -2.46875 25.175781 -3.613281 28 -5.78125 C 30.820312 -7.957031 33.457031 -10.644531 35.90625 -13.84375 C 36.5 -14.601562 37.109375 -15.046875 37.734375 -15.171875 C 38.367188 -15.296875 38.925781 -15.195312 39.40625 -14.875 C 39.894531 -14.5625 40.179688 -14.085938 40.265625 -13.453125 C 40.347656 -12.828125 40.117188 -12.15625 39.578125 -11.4375 C 38.441406 -9.882812 37.132812 -8.296875 35.65625 -6.671875 C 34.175781 -5.046875 32.539062 -3.554688 30.75 -2.203125 C 28.957031 -0.859375 27 0.222656 24.875 1.046875 C 22.75 1.867188 20.441406 2.28125 17.953125 2.28125 Z M 17.953125 2.28125 "/></g></g></g><g fill="#ff0000" fill-opacity="1"><g transform="translate(109.851738, 294.960229)"><g><path d="M 17.328125 1.203125 C 15.972656 1.203125 14.863281 0.851562 14 0.15625 C 13.132812 -0.539062 12.476562 -1.375 12.03125 -2.34375 C 11.59375 -3.3125 11.3125 -4.21875 11.1875 -5.0625 C 11.144531 -5.519531 10.9375 -5.5625 10.5625 -5.1875 C 9.164062 -3.457031 7.832031 -2.316406 6.5625 -1.765625 C 5.300781 -1.222656 4.1875 -0.953125 3.21875 -0.953125 C 1.363281 -0.953125 -0.179688 -1.5625 -1.421875 -2.78125 C -2.660156 -4 -3.28125 -5.515625 -3.28125 -7.328125 C -3.28125 -9.222656 -2.898438 -11.085938 -2.140625 -12.921875 C -1.390625 -14.753906 -0.363281 -16.410156 0.9375 -17.890625 C 2.25 -19.367188 3.71875 -20.550781 5.34375 -21.4375 C 6.96875 -22.320312 8.664062 -22.765625 10.4375 -22.765625 C 11.0625 -22.765625 11.742188 -22.695312 12.484375 -22.5625 C 13.222656 -22.4375 13.863281 -22.207031 14.40625 -21.875 C 14.832031 -21.664062 15.128906 -21.75 15.296875 -22.125 C 15.972656 -23.300781 16.570312 -24.085938 17.09375 -24.484375 C 17.625 -24.890625 18.097656 -25.09375 18.515625 -25.09375 C 19.023438 -25.09375 19.507812 -24.925781 19.96875 -24.59375 C 20.4375 -24.257812 20.765625 -23.804688 20.953125 -23.234375 C 21.140625 -22.660156 21.046875 -22.039062 20.671875 -21.375 C 19.828125 -19.769531 19.003906 -18.09375 18.203125 -16.34375 C 17.398438 -14.59375 16.742188 -12.90625 16.234375 -11.28125 C 15.734375 -9.65625 15.484375 -8.210938 15.484375 -6.953125 C 15.484375 -5.941406 15.691406 -5.097656 16.109375 -4.421875 C 16.535156 -3.742188 17.109375 -3.40625 17.828125 -3.40625 C 18.878906 -3.40625 19.992188 -3.941406 21.171875 -5.015625 C 22.359375 -6.097656 23.570312 -7.4375 24.8125 -9.03125 C 26.050781 -10.632812 27.285156 -12.238281 28.515625 -13.84375 C 29.015625 -14.519531 29.570312 -14.921875 30.1875 -15.046875 C 30.800781 -15.171875 31.347656 -15.082031 31.828125 -14.78125 C 32.316406 -14.488281 32.613281 -14.046875 32.71875 -13.453125 C 32.820312 -12.867188 32.617188 -12.195312 32.109375 -11.4375 C 29.546875 -7.6875 27.082031 -4.640625 24.71875 -2.296875 C 22.351562 0.0351562 19.890625 1.203125 17.328125 1.203125 Z M 3.921875 -5.3125 C 4.929688 -5.3125 5.910156 -5.773438 6.859375 -6.703125 C 7.804688 -7.628906 8.691406 -8.753906 9.515625 -10.078125 C 10.335938 -11.410156 11.039062 -12.707031 11.625 -13.96875 C 12.21875 -15.238281 12.640625 -16.226562 12.890625 -16.9375 C 13.066406 -17.320312 12.960938 -17.597656 12.578125 -17.765625 C 12.160156 -17.972656 11.707031 -18.128906 11.21875 -18.234375 C 10.738281 -18.335938 10.304688 -18.390625 9.921875 -18.390625 C 8.867188 -18.390625 7.828125 -18.007812 6.796875 -17.25 C 5.765625 -16.5 4.847656 -15.550781 4.046875 -14.40625 C 3.242188 -13.269531 2.640625 -12.09375 2.234375 -10.875 C 1.835938 -9.65625 1.703125 -8.582031 1.828125 -7.65625 C 1.953125 -6.8125 2.203125 -6.207031 2.578125 -5.84375 C 2.960938 -5.488281 3.410156 -5.3125 3.921875 -5.3125 Z M 3.921875 -5.3125 "/></g></g></g><g fill="#ff0000" fill-opacity="1"><g transform="translate(140.068229, 294.960229)"><g><path d="M 24.96875 -13.84375 C 25.476562 -14.519531 26.023438 -14.910156 26.609375 -15.015625 C 27.203125 -15.117188 27.738281 -15.007812 28.21875 -14.6875 C 28.707031 -14.375 29.015625 -13.929688 29.140625 -13.359375 C 29.265625 -12.796875 29.078125 -12.15625 28.578125 -11.4375 C 26.847656 -9 25.015625 -6.875 23.078125 -5.0625 C 21.140625 -3.25 19.1875 -1.820312 17.21875 -0.78125 C 15.257812 0.25 13.375 0.765625 11.5625 0.765625 C 9.539062 0.765625 7.851562 0.21875 6.5 -0.875 C 5.15625 -1.976562 4.15625 -3.445312 3.5 -5.28125 C 2.851562 -7.113281 2.53125 -9.082031 2.53125 -11.1875 C 2.53125 -11.4375 2.5 -11.644531 2.4375 -11.8125 C 2.375 -11.988281 2.300781 -12.015625 2.21875 -11.890625 C 2.082031 -11.765625 1.972656 -11.613281 1.890625 -11.4375 C 1.265625 -10.382812 0.488281 -9.859375 -0.4375 -9.859375 C -1.113281 -9.859375 -1.617188 -10.046875 -1.953125 -10.421875 C -2.296875 -10.804688 -2.46875 -11.253906 -2.46875 -11.765625 C -2.46875 -12.429688 -2.210938 -13.125 -1.703125 -13.84375 C -0.941406 -14.851562 -0.078125 -15.988281 0.890625 -17.25 C 1.859375 -18.519531 2.972656 -20.164062 4.234375 -22.1875 C 4.316406 -22.3125 4.378906 -22.425781 4.421875 -22.53125 C 4.460938 -22.644531 4.503906 -22.765625 4.546875 -22.890625 C 5.859375 -27.359375 7.472656 -31.242188 9.390625 -34.546875 C 11.304688 -37.859375 13.359375 -40.441406 15.546875 -42.296875 C 17.742188 -44.148438 19.875 -45.078125 21.9375 -45.078125 C 23.539062 -45.078125 24.835938 -44.625 25.828125 -43.71875 C 26.816406 -42.8125 27.3125 -41.617188 27.3125 -40.140625 C 27.3125 -38.453125 26.867188 -36.796875 25.984375 -35.171875 C 25.097656 -33.554688 23.976562 -32.039062 22.625 -30.625 C 21.28125 -29.21875 19.878906 -27.941406 18.421875 -26.796875 C 16.972656 -25.660156 15.660156 -24.710938 14.484375 -23.953125 C 13.460938 -23.328125 12.53125 -22.757812 11.6875 -22.25 C 10.851562 -21.75 10.035156 -21.285156 9.234375 -20.859375 C 8.890625 -20.734375 8.695312 -20.523438 8.65625 -20.234375 C 8.320312 -18.796875 8.023438 -17.285156 7.765625 -15.703125 C 7.515625 -14.128906 7.390625 -12.601562 7.390625 -11.125 C 7.390625 -9.101562 7.707031 -7.375 8.34375 -5.9375 C 8.976562 -4.507812 10.097656 -3.796875 11.703125 -3.796875 C 13.503906 -3.796875 15.578125 -4.644531 17.921875 -6.34375 C 20.265625 -8.050781 22.613281 -10.550781 24.96875 -13.84375 Z M 21.75 -40.390625 C 20.863281 -40.390625 19.9375 -39.957031 18.96875 -39.09375 C 18 -38.238281 17.039062 -37.15625 16.09375 -35.84375 C 15.144531 -34.539062 14.269531 -33.191406 13.46875 -31.796875 C 12.664062 -30.410156 12.007812 -29.164062 11.5 -28.0625 C 11.332031 -27.769531 11.320312 -27.5625 11.46875 -27.4375 C 11.625 -27.3125 11.847656 -27.332031 12.140625 -27.5 C 13.191406 -28.21875 14.335938 -29.070312 15.578125 -30.0625 C 16.828125 -31.050781 18.007812 -32.113281 19.125 -33.25 C 20.238281 -34.382812 21.15625 -35.476562 21.875 -36.53125 C 22.59375 -37.59375 22.953125 -38.503906 22.953125 -39.265625 C 22.953125 -40.015625 22.550781 -40.390625 21.75 -40.390625 Z M 21.75 -40.390625 "/></g></g></g><g fill="#ff0000" fill-opacity="1"><g transform="translate(166.744716, 294.960229)"><g><path d="M 24.96875 -13.84375 C 25.476562 -14.519531 26.023438 -14.910156 26.609375 -15.015625 C 27.203125 -15.117188 27.738281 -15.007812 28.21875 -14.6875 C 28.707031 -14.375 29.015625 -13.929688 29.140625 -13.359375 C 29.265625 -12.796875 29.078125 -12.15625 28.578125 -11.4375 C 26.847656 -9 25.015625 -6.875 23.078125 -5.0625 C 21.140625 -3.25 19.1875 -1.820312 17.21875 -0.78125 C 15.257812 0.25 13.375 0.765625 11.5625 0.765625 C 9.539062 0.765625 7.851562 0.21875 6.5 -0.875 C 5.15625 -1.976562 4.15625 -3.445312 3.5 -5.28125 C 2.851562 -7.113281 2.53125 -9.082031 2.53125 -11.1875 C 2.53125 -11.4375 2.5 -11.644531 2.4375 -11.8125 C 2.375 -11.988281 2.300781 -12.015625 2.21875 -11.890625 C 2.082031 -11.765625 1.972656 -11.613281 1.890625 -11.4375 C 1.265625 -10.382812 0.488281 -9.859375 -0.4375 -9.859375 C -1.113281 -9.859375 -1.617188 -10.046875 -1.953125 -10.421875 C -2.296875 -10.804688 -2.46875 -11.253906 -2.46875 -11.765625 C -2.46875 -12.429688 -2.210938 -13.125 -1.703125 -13.84375 C -0.941406 -14.851562 -0.078125 -15.988281 0.890625 -17.25 C 1.859375 -18.519531 2.972656 -20.164062 4.234375 -22.1875 C 4.316406 -22.3125 4.378906 -22.425781 4.421875 -22.53125 C 4.460938 -22.644531 4.503906 -22.765625 4.546875 -22.890625 C 5.859375 -27.359375 7.472656 -31.242188 9.390625 -34.546875 C 11.304688 -37.859375 13.359375 -40.441406 15.546875 -42.296875 C 17.742188 -44.148438 19.875 -45.078125 21.9375 -45.078125 C 23.539062 -45.078125 24.835938 -44.625 25.828125 -43.71875 C 26.816406 -42.8125 27.3125 -41.617188 27.3125 -40.140625 C 27.3125 -38.453125 26.867188 -36.796875 25.984375 -35.171875 C 25.097656 -33.554688 23.976562 -32.039062 22.625 -30.625 C 21.28125 -29.21875 19.878906 -27.941406 18.421875 -26.796875 C 16.972656 -25.660156 15.660156 -24.710938 14.484375 -23.953125 C 13.460938 -23.328125 12.53125 -22.757812 11.6875 -22.25 C 10.851562 -21.75 10.035156 -21.285156 9.234375 -20.859375 C 8.890625 -20.734375 8.695312 -20.523438 8.65625 -20.234375 C 8.320312 -18.796875 8.023438 -17.285156 7.765625 -15.703125 C 7.515625 -14.128906 7.390625 -12.601562 7.390625 -11.125 C 7.390625 -9.101562 7.707031 -7.375 8.34375 -5.9375 C 8.976562 -4.507812 10.097656 -3.796875 11.703125 -3.796875 C 13.503906 -3.796875 15.578125 -4.644531 17.921875 -6.34375 C 20.265625 -8.050781 22.613281 -10.550781 24.96875 -13.84375 Z M 21.75 -40.390625 C 20.863281 -40.390625 19.9375 -39.957031 18.96875 -39.09375 C 18 -38.238281 17.039062 -37.15625 16.09375 -35.84375 C 15.144531 -34.539062 14.269531 -33.191406 13.46875 -31.796875 C 12.664062 -30.410156 12.007812 -29.164062 11.5 -28.0625 C 11.332031 -27.769531 11.320312 -27.5625 11.46875 -27.4375 C 11.625 -27.3125 11.847656 -27.332031 12.140625 -27.5 C 13.191406 -28.21875 14.335938 -29.070312 15.578125 -30.0625 C 16.828125 -31.050781 18.007812 -32.113281 19.125 -33.25 C 20.238281 -34.382812 21.15625 -35.476562 21.875 -36.53125 C 22.59375 -37.59375 22.953125 -38.503906 22.953125 -39.265625 C 22.953125 -40.015625 22.550781 -40.390625 21.75 -40.390625 Z M 21.75 -40.390625 "/></g></g></g><g fill="#ff0000" fill-opacity="1"><g transform="translate(193.421202, 294.960229)"><g/></g></g><g fill="#ff0000" fill-opacity="1"><g transform="translate(210.489093, 294.960229)"><g><path d="M 17.328125 1.203125 C 15.972656 1.203125 14.863281 0.851562 14 0.15625 C 13.132812 -0.539062 12.476562 -1.375 12.03125 -2.34375 C 11.59375 -3.3125 11.3125 -4.21875 11.1875 -5.0625 C 11.144531 -5.519531 10.9375 -5.5625 10.5625 -5.1875 C 9.164062 -3.457031 7.832031 -2.316406 6.5625 -1.765625 C 5.300781 -1.222656 4.1875 -0.953125 3.21875 -0.953125 C 1.363281 -0.953125 -0.179688 -1.5625 -1.421875 -2.78125 C -2.660156 -4 -3.28125 -5.515625 -3.28125 -7.328125 C -3.28125 -9.222656 -2.898438 -11.085938 -2.140625 -12.921875 C -1.390625 -14.753906 -0.363281 -16.410156 0.9375 -17.890625 C 2.25 -19.367188 3.71875 -20.550781 5.34375 -21.4375 C 6.96875 -22.320312 8.664062 -22.765625 10.4375 -22.765625 C 11.0625 -22.765625 11.742188 -22.695312 12.484375 -22.5625 C 13.222656 -22.4375 13.863281 -22.207031 14.40625 -21.875 C 14.832031 -21.664062 15.128906 -21.75 15.296875 -22.125 C 15.972656 -23.300781 16.570312 -24.085938 17.09375 -24.484375 C 17.625 -24.890625 18.097656 -25.09375 18.515625 -25.09375 C 19.023438 -25.09375 19.507812 -24.925781 19.96875 -24.59375 C 20.4375 -24.257812 20.765625 -23.804688 20.953125 -23.234375 C 21.140625 -22.660156 21.046875 -22.039062 20.671875 -21.375 C 19.828125 -19.769531 19.003906 -18.09375 18.203125 -16.34375 C 17.398438 -14.59375 16.742188 -12.90625 16.234375 -11.28125 C 15.734375 -9.65625 15.484375 -8.210938 15.484375 -6.953125 C 15.484375 -5.941406 15.691406 -5.097656 16.109375 -4.421875 C 16.535156 -3.742188 17.109375 -3.40625 17.828125 -3.40625 C 18.878906 -3.40625 19.992188 -3.941406 21.171875 -5.015625 C 22.359375 -6.097656 23.570312 -7.4375 24.8125 -9.03125 C 26.050781 -10.632812 27.285156 -12.238281 28.515625 -13.84375 C 29.015625 -14.519531 29.570312 -14.921875 30.1875 -15.046875 C 30.800781 -15.171875 31.347656 -15.082031 31.828125 -14.78125 C 32.316406 -14.488281 32.613281 -14.046875 32.71875 -13.453125 C 32.820312 -12.867188 32.617188 -12.195312 32.109375 -11.4375 C 29.546875 -7.6875 27.082031 -4.640625 24.71875 -2.296875 C 22.351562 0.0351562 19.890625 1.203125 17.328125 1.203125 Z M 3.921875 -5.3125 C 4.929688 -5.3125 5.910156 -5.773438 6.859375 -6.703125 C 7.804688 -7.628906 8.691406 -8.753906 9.515625 -10.078125 C 10.335938 -11.410156 11.039062 -12.707031 11.625 -13.96875 C 12.21875 -15.238281 12.640625 -16.226562 12.890625 -16.9375 C 13.066406 -17.320312 12.960938 -17.597656 12.578125 -17.765625 C 12.160156 -17.972656 11.707031 -18.128906 11.21875 -18.234375 C 10.738281 -18.335938 10.304688 -18.390625 9.921875 -18.390625 C 8.867188 -18.390625 7.828125 -18.007812 6.796875 -17.25 C 5.765625 -16.5 4.847656 -15.550781 4.046875 -14.40625 C 3.242188 -13.269531 2.640625 -12.09375 2.234375 -10.875 C 1.835938 -9.65625 1.703125 -8.582031 1.828125 -7.65625 C 1.953125 -6.8125 2.203125 -6.207031 2.578125 -5.84375 C 2.960938 -5.488281 3.410156 -5.3125 3.921875 -5.3125 Z M 3.921875 -5.3125 "/></g></g></g><g fill="#ff0000" fill-opacity="1"><g transform="translate(240.705584, 294.960229)"><g><path d="M 26.171875 -13.84375 C 26.679688 -14.601562 27.238281 -15.023438 27.84375 -15.109375 C 28.457031 -15.191406 28.984375 -15.050781 29.421875 -14.6875 C 29.867188 -14.332031 30.15625 -13.859375 30.28125 -13.265625 C 30.40625 -12.679688 30.238281 -12.070312 29.78125 -11.4375 C 28.050781 -8.875 26.3125 -6.628906 24.5625 -4.703125 C 22.8125 -2.785156 20.96875 -1.28125 19.03125 -0.1875 C 17.09375 0.90625 14.941406 1.453125 12.578125 1.453125 C 10.804688 1.453125 9.253906 0.957031 7.921875 -0.03125 C 6.597656 -1.019531 5.578125 -2.359375 4.859375 -4.046875 C 4.148438 -5.734375 3.796875 -7.566406 3.796875 -9.546875 C 3.796875 -10.003906 3.835938 -10.59375 3.921875 -11.3125 C 4.003906 -12.03125 4.109375 -12.789062 4.234375 -13.59375 C 4.316406 -13.925781 4.265625 -14.125 4.078125 -14.1875 C 3.890625 -14.25 3.710938 -14.15625 3.546875 -13.90625 L 1.890625 -11.4375 C 1.265625 -10.550781 0.613281 -10.035156 -0.0625 -9.890625 C -0.738281 -9.742188 -1.296875 -9.835938 -1.734375 -10.171875 C -2.179688 -10.515625 -2.425781 -11.019531 -2.46875 -11.6875 C -2.507812 -12.363281 -2.253906 -13.082031 -1.703125 -13.84375 C -0.734375 -15.15625 0.398438 -16.726562 1.703125 -18.5625 C 3.015625 -20.394531 4.488281 -22.570312 6.125 -25.09375 C 6.382812 -25.5625 6.472656 -25.796875 6.390625 -25.796875 C 6.347656 -25.796875 6.316406 -25.804688 6.296875 -25.828125 C 6.273438 -25.847656 6.242188 -25.859375 6.203125 -25.859375 C 5.898438 -25.898438 5.441406 -25.820312 4.828125 -25.625 C 4.222656 -25.4375 3.601562 -25.175781 2.96875 -24.84375 C 2.289062 -24.46875 1.644531 -24.097656 1.03125 -23.734375 C 0.425781 -23.378906 -0.148438 -23.179688 -0.703125 -23.140625 C -1.117188 -23.097656 -1.535156 -23.222656 -1.953125 -23.515625 C -2.378906 -23.804688 -2.632812 -24.351562 -2.71875 -25.15625 C -2.757812 -26 -2.460938 -26.738281 -1.828125 -27.375 C -1.203125 -28.007812 -0.40625 -28.523438 0.5625 -28.921875 C 1.53125 -29.316406 2.539062 -29.617188 3.59375 -29.828125 C 4.65625 -30.046875 5.566406 -30.15625 6.328125 -30.15625 C 6.785156 -30.195312 7.210938 -30.207031 7.609375 -30.1875 C 8.015625 -30.164062 8.40625 -30.15625 8.78125 -30.15625 C 9.125 -30.113281 9.378906 -30.238281 9.546875 -30.53125 C 10.472656 -32.132812 11.125 -33.410156 11.5 -34.359375 C 11.882812 -35.304688 12.242188 -36.160156 12.578125 -36.921875 C 12.960938 -37.722656 13.382812 -38.488281 13.84375 -39.21875 C 14.3125 -39.957031 15.09375 -40.328125 16.1875 -40.328125 C 17.113281 -40.328125 17.765625 -39.9375 18.140625 -39.15625 C 18.523438 -38.382812 18.71875 -37.597656 18.71875 -36.796875 C 18.71875 -35.910156 18.328125 -34.894531 17.546875 -33.75 C 16.765625 -32.613281 15.890625 -31.351562 14.921875 -29.96875 C 14.578125 -29.5 14.679688 -29.222656 15.234375 -29.140625 C 16.328125 -29.015625 17.359375 -29.015625 18.328125 -29.140625 C 19.128906 -29.265625 19.835938 -29.535156 20.453125 -29.953125 C 21.066406 -30.378906 21.644531 -30.78125 22.1875 -31.15625 C 22.738281 -31.539062 23.285156 -31.734375 23.828125 -31.734375 C 24.585938 -31.773438 25.132812 -31.570312 25.46875 -31.125 C 25.8125 -30.6875 26.003906 -30.238281 26.046875 -29.78125 C 26.128906 -28.8125 25.726562 -27.96875 24.84375 -27.25 C 23.957031 -26.53125 22.9375 -25.957031 21.78125 -25.53125 C 20.625 -25.113281 19.644531 -24.863281 18.84375 -24.78125 C 17.613281 -24.695312 16.410156 -24.71875 15.234375 -24.84375 C 14.054688 -24.96875 13.109375 -25.070312 12.390625 -25.15625 C 12.097656 -25.195312 11.890625 -25.132812 11.765625 -24.96875 C 11.765625 -24.96875 11.71875 -24.882812 11.625 -24.71875 C 10.957031 -23.320312 10.367188 -21.71875 9.859375 -19.90625 C 9.359375 -18.101562 8.976562 -16.285156 8.71875 -14.453125 C 8.46875 -12.617188 8.34375 -10.921875 8.34375 -9.359375 C 8.34375 -7.335938 8.722656 -5.785156 9.484375 -4.703125 C 10.242188 -3.628906 11.488281 -3.09375 13.21875 -3.09375 C 14.8125 -3.09375 16.335938 -3.597656 17.796875 -4.609375 C 19.253906 -5.617188 20.675781 -6.945312 22.0625 -8.59375 C 23.457031 -10.238281 24.828125 -11.988281 26.171875 -13.84375 Z M 26.171875 -13.84375 "/></g></g></g><g fill="#00ffff" fill-opacity="1"><g transform="translate(66.458429, 300.350854)"><g><path d="M 17.953125 2.28125 C 15.171875 2.28125 12.832031 1.78125 10.9375 0.78125 C 9.039062 -0.207031 7.519531 -1.519531 6.375 -3.15625 C 5.238281 -4.800781 4.414062 -6.601562 3.90625 -8.5625 C 3.40625 -10.519531 3.15625 -12.46875 3.15625 -14.40625 C 3.15625 -16.8125 3.515625 -19.234375 4.234375 -21.671875 C 4.953125 -24.117188 5.972656 -26.457031 7.296875 -28.6875 C 8.628906 -30.925781 10.203125 -32.921875 12.015625 -34.671875 C 13.828125 -36.421875 15.816406 -37.800781 17.984375 -38.8125 C 20.148438 -39.820312 22.4375 -40.328125 24.84375 -40.328125 C 26.695312 -40.328125 28.335938 -39.925781 29.765625 -39.125 C 31.203125 -38.332031 32.34375 -37.238281 33.1875 -35.84375 C 34.03125 -34.457031 34.453125 -32.835938 34.453125 -30.984375 C 34.453125 -29.753906 34.226562 -28.53125 33.78125 -27.3125 C 33.34375 -26.09375 32.742188 -24.972656 31.984375 -23.953125 C 31.441406 -23.203125 30.875 -22.769531 30.28125 -22.65625 C 29.6875 -22.550781 29.164062 -22.664062 28.71875 -23 C 28.28125 -23.34375 28.03125 -23.816406 27.96875 -24.421875 C 27.90625 -25.035156 28.128906 -25.679688 28.640625 -26.359375 C 29.097656 -27.035156 29.441406 -27.765625 29.671875 -28.546875 C 29.910156 -29.328125 30.03125 -30.050781 30.03125 -30.71875 C 30.03125 -31.988281 29.609375 -33.171875 28.765625 -34.265625 C 27.921875 -35.359375 26.507812 -35.90625 24.53125 -35.90625 C 22.25 -35.90625 20.097656 -35.238281 18.078125 -33.90625 C 16.054688 -32.582031 14.273438 -30.847656 12.734375 -28.703125 C 11.203125 -26.554688 9.992188 -24.195312 9.109375 -21.625 C 8.222656 -19.050781 7.78125 -16.519531 7.78125 -14.03125 C 7.78125 -12.132812 8.125 -10.269531 8.8125 -8.4375 C 9.507812 -6.601562 10.671875 -5.109375 12.296875 -3.953125 C 13.921875 -2.796875 16.125 -2.257812 18.90625 -2.34375 C 22.144531 -2.46875 25.175781 -3.613281 28 -5.78125 C 30.820312 -7.957031 33.457031 -10.644531 35.90625 -13.84375 C 36.5 -14.601562 37.109375 -15.046875 37.734375 -15.171875 C 38.367188 -15.296875 38.925781 -15.195312 39.40625 -14.875 C 39.894531 -14.5625 40.179688 -14.085938 40.265625 -13.453125 C 40.347656 -12.828125 40.117188 -12.15625 39.578125 -11.4375 C 38.441406 -9.882812 37.132812 -8.296875 35.65625 -6.671875 C 34.175781 -5.046875 32.539062 -3.554688 30.75 -2.203125 C 28.957031 -0.859375 27 0.222656 24.875 1.046875 C 22.75 1.867188 20.441406 2.28125 17.953125 2.28125 Z M 17.953125 2.28125 "/></g></g></g><g fill="#00ffff" fill-opacity="1"><g transform="translate(104.071, 300.350854)"><g><path d="M 17.328125 1.203125 C 15.972656 1.203125 14.863281 0.851562 14 0.15625 C 13.132812 -0.539062 12.476562 -1.375 12.03125 -2.34375 C 11.59375 -3.3125 11.3125 -4.21875 11.1875 -5.0625 C 11.144531 -5.519531 10.9375 -5.5625 10.5625 -5.1875 C 9.164062 -3.457031 7.832031 -2.316406 6.5625 -1.765625 C 5.300781 -1.222656 4.1875 -0.953125 3.21875 -0.953125 C 1.363281 -0.953125 -0.179688 -1.5625 -1.421875 -2.78125 C -2.660156 -4 -3.28125 -5.515625 -3.28125 -7.328125 C -3.28125 -9.222656 -2.898438 -11.085938 -2.140625 -12.921875 C -1.390625 -14.753906 -0.363281 -16.410156 0.9375 -17.890625 C 2.25 -19.367188 3.71875 -20.550781 5.34375 -21.4375 C 6.96875 -22.320312 8.664062 -22.765625 10.4375 -22.765625 C 11.0625 -22.765625 11.742188 -22.695312 12.484375 -22.5625 C 13.222656 -22.4375 13.863281 -22.207031 14.40625 -21.875 C 14.832031 -21.664062 15.128906 -21.75 15.296875 -22.125 C 15.972656 -23.300781 16.570312 -24.085938 17.09375 -24.484375 C 17.625 -24.890625 18.097656 -25.09375 18.515625 -25.09375 C 19.023438 -25.09375 19.507812 -24.925781 19.96875 -24.59375 C 20.4375 -24.257812 20.765625 -23.804688 20.953125 -23.234375 C 21.140625 -22.660156 21.046875 -22.039062 20.671875 -21.375 C 19.828125 -19.769531 19.003906 -18.09375 18.203125 -16.34375 C 17.398438 -14.59375 16.742188 -12.90625 16.234375 -11.28125 C 15.734375 -9.65625 15.484375 -8.210938 15.484375 -6.953125 C 15.484375 -5.941406 15.691406 -5.097656 16.109375 -4.421875 C 16.535156 -3.742188 17.109375 -3.40625 17.828125 -3.40625 C 18.878906 -3.40625 19.992188 -3.941406 21.171875 -5.015625 C 22.359375 -6.097656 23.570312 -7.4375 24.8125 -9.03125 C 26.050781 -10.632812 27.285156 -12.238281 28.515625 -13.84375 C 29.015625 -14.519531 29.570312 -14.921875 30.1875 -15.046875 C 30.800781 -15.171875 31.347656 -15.082031 31.828125 -14.78125 C 32.316406 -14.488281 32.613281 -14.046875 32.71875 -13.453125 C 32.820312 -12.867188 32.617188 -12.195312 32.109375 -11.4375 C 29.546875 -7.6875 27.082031 -4.640625 24.71875 -2.296875 C 22.351562 0.0351562 19.890625 1.203125 17.328125 1.203125 Z M 3.921875 -5.3125 C 4.929688 -5.3125 5.910156 -5.773438 6.859375 -6.703125 C 7.804688 -7.628906 8.691406 -8.753906 9.515625 -10.078125 C 10.335938 -11.410156 11.039062 -12.707031 11.625 -13.96875 C 12.21875 -15.238281 12.640625 -16.226562 12.890625 -16.9375 C 13.066406 -17.320312 12.960938 -17.597656 12.578125 -17.765625 C 12.160156 -17.972656 11.707031 -18.128906 11.21875 -18.234375 C 10.738281 -18.335938 10.304688 -18.390625 9.921875 -18.390625 C 8.867188 -18.390625 7.828125 -18.007812 6.796875 -17.25 C 5.765625 -16.5 4.847656 -15.550781 4.046875 -14.40625 C 3.242188 -13.269531 2.640625 -12.09375 2.234375 -10.875 C 1.835938 -9.65625 1.703125 -8.582031 1.828125 -7.65625 C 1.953125 -6.8125 2.203125 -6.207031 2.578125 -5.84375 C 2.960938 -5.488281 3.410156 -5.3125 3.921875 -5.3125 Z M 3.921875 -5.3125 "/></g></g></g><g fill="#00ffff" fill-opacity="1"><g transform="translate(134.287491, 300.350854)"><g><path d="M 24.96875 -13.84375 C 25.476562 -14.519531 26.023438 -14.910156 26.609375 -15.015625 C 27.203125 -15.117188 27.738281 -15.007812 28.21875 -14.6875 C 28.707031 -14.375 29.015625 -13.929688 29.140625 -13.359375 C 29.265625 -12.796875 29.078125 -12.15625 28.578125 -11.4375 C 26.847656 -9 25.015625 -6.875 23.078125 -5.0625 C 21.140625 -3.25 19.1875 -1.820312 17.21875 -0.78125 C 15.257812 0.25 13.375 0.765625 11.5625 0.765625 C 9.539062 0.765625 7.851562 0.21875 6.5 -0.875 C 5.15625 -1.976562 4.15625 -3.445312 3.5 -5.28125 C 2.851562 -7.113281 2.53125 -9.082031 2.53125 -11.1875 C 2.53125 -11.4375 2.5 -11.644531 2.4375 -11.8125 C 2.375 -11.988281 2.300781 -12.015625 2.21875 -11.890625 C 2.082031 -11.765625 1.972656 -11.613281 1.890625 -11.4375 C 1.265625 -10.382812 0.488281 -9.859375 -0.4375 -9.859375 C -1.113281 -9.859375 -1.617188 -10.046875 -1.953125 -10.421875 C -2.296875 -10.804688 -2.46875 -11.253906 -2.46875 -11.765625 C -2.46875 -12.429688 -2.210938 -13.125 -1.703125 -13.84375 C -0.941406 -14.851562 -0.078125 -15.988281 0.890625 -17.25 C 1.859375 -18.519531 2.972656 -20.164062 4.234375 -22.1875 C 4.316406 -22.3125 4.378906 -22.425781 4.421875 -22.53125 C 4.460938 -22.644531 4.503906 -22.765625 4.546875 -22.890625 C 5.859375 -27.359375 7.472656 -31.242188 9.390625 -34.546875 C 11.304688 -37.859375 13.359375 -40.441406 15.546875 -42.296875 C 17.742188 -44.148438 19.875 -45.078125 21.9375 -45.078125 C 23.539062 -45.078125 24.835938 -44.625 25.828125 -43.71875 C 26.816406 -42.8125 27.3125 -41.617188 27.3125 -40.140625 C 27.3125 -38.453125 26.867188 -36.796875 25.984375 -35.171875 C 25.097656 -33.554688 23.976562 -32.039062 22.625 -30.625 C 21.28125 -29.21875 19.878906 -27.941406 18.421875 -26.796875 C 16.972656 -25.660156 15.660156 -24.710938 14.484375 -23.953125 C 13.460938 -23.328125 12.53125 -22.757812 11.6875 -22.25 C 10.851562 -21.75 10.035156 -21.285156 9.234375 -20.859375 C 8.890625 -20.734375 8.695312 -20.523438 8.65625 -20.234375 C 8.320312 -18.796875 8.023438 -17.285156 7.765625 -15.703125 C 7.515625 -14.128906 7.390625 -12.601562 7.390625 -11.125 C 7.390625 -9.101562 7.707031 -7.375 8.34375 -5.9375 C 8.976562 -4.507812 10.097656 -3.796875 11.703125 -3.796875 C 13.503906 -3.796875 15.578125 -4.644531 17.921875 -6.34375 C 20.265625 -8.050781 22.613281 -10.550781 24.96875 -13.84375 Z M 21.75 -40.390625 C 20.863281 -40.390625 19.9375 -39.957031 18.96875 -39.09375 C 18 -38.238281 17.039062 -37.15625 16.09375 -35.84375 C 15.144531 -34.539062 14.269531 -33.191406 13.46875 -31.796875 C 12.664062 -30.410156 12.007812 -29.164062 11.5 -28.0625 C 11.332031 -27.769531 11.320312 -27.5625 11.46875 -27.4375 C 11.625 -27.3125 11.847656 -27.332031 12.140625 -27.5 C 13.191406 -28.21875 14.335938 -29.070312 15.578125 -30.0625 C 16.828125 -31.050781 18.007812 -32.113281 19.125 -33.25 C 20.238281 -34.382812 21.15625 -35.476562 21.875 -36.53125 C 22.59375 -37.59375 22.953125 -38.503906 22.953125 -39.265625 C 22.953125 -40.015625 22.550781 -40.390625 21.75 -40.390625 Z M 21.75 -40.390625 "/></g></g></g><g fill="#00ffff" fill-opacity="1"><g transform="translate(160.963977, 300.350854)"><g><path d="M 24.96875 -13.84375 C 25.476562 -14.519531 26.023438 -14.910156 26.609375 -15.015625 C 27.203125 -15.117188 27.738281 -15.007812 28.21875 -14.6875 C 28.707031 -14.375 29.015625 -13.929688 29.140625 -13.359375 C 29.265625 -12.796875 29.078125 -12.15625 28.578125 -11.4375 C 26.847656 -9 25.015625 -6.875 23.078125 -5.0625 C 21.140625 -3.25 19.1875 -1.820312 17.21875 -0.78125 C 15.257812 0.25 13.375 0.765625 11.5625 0.765625 C 9.539062 0.765625 7.851562 0.21875 6.5 -0.875 C 5.15625 -1.976562 4.15625 -3.445312 3.5 -5.28125 C 2.851562 -7.113281 2.53125 -9.082031 2.53125 -11.1875 C 2.53125 -11.4375 2.5 -11.644531 2.4375 -11.8125 C 2.375 -11.988281 2.300781 -12.015625 2.21875 -11.890625 C 2.082031 -11.765625 1.972656 -11.613281 1.890625 -11.4375 C 1.265625 -10.382812 0.488281 -9.859375 -0.4375 -9.859375 C -1.113281 -9.859375 -1.617188 -10.046875 -1.953125 -10.421875 C -2.296875 -10.804688 -2.46875 -11.253906 -2.46875 -11.765625 C -2.46875 -12.429688 -2.210938 -13.125 -1.703125 -13.84375 C -0.941406 -14.851562 -0.078125 -15.988281 0.890625 -17.25 C 1.859375 -18.519531 2.972656 -20.164062 4.234375 -22.1875 C 4.316406 -22.3125 4.378906 -22.425781 4.421875 -22.53125 C 4.460938 -22.644531 4.503906 -22.765625 4.546875 -22.890625 C 5.859375 -27.359375 7.472656 -31.242188 9.390625 -34.546875 C 11.304688 -37.859375 13.359375 -40.441406 15.546875 -42.296875 C 17.742188 -44.148438 19.875 -45.078125 21.9375 -45.078125 C 23.539062 -45.078125 24.835938 -44.625 25.828125 -43.71875 C 26.816406 -42.8125 27.3125 -41.617188 27.3125 -40.140625 C 27.3125 -38.453125 26.867188 -36.796875 25.984375 -35.171875 C 25.097656 -33.554688 23.976562 -32.039062 22.625 -30.625 C 21.28125 -29.21875 19.878906 -27.941406 18.421875 -26.796875 C 16.972656 -25.660156 15.660156 -24.710938 14.484375 -23.953125 C 13.460938 -23.328125 12.53125 -22.757812 11.6875 -22.25 C 10.851562 -21.75 10.035156 -21.285156 9.234375 -20.859375 C 8.890625 -20.734375 8.695312 -20.523438 8.65625 -20.234375 C 8.320312 -18.796875 8.023438 -17.285156 7.765625 -15.703125 C 7.515625 -14.128906 7.390625 -12.601562 7.390625 -11.125 C 7.390625 -9.101562 7.707031 -7.375 8.34375 -5.9375 C 8.976562 -4.507812 10.097656 -3.796875 11.703125 -3.796875 C 13.503906 -3.796875 15.578125 -4.644531 17.921875 -6.34375 C 20.265625 -8.050781 22.613281 -10.550781 24.96875 -13.84375 Z M 21.75 -40.390625 C 20.863281 -40.390625 19.9375 -39.957031 18.96875 -39.09375 C 18 -38.238281 17.039062 -37.15625 16.09375 -35.84375 C 15.144531 -34.539062 14.269531 -33.191406 13.46875 -31.796875 C 12.664062 -30.410156 12.007812 -29.164062 11.5 -28.0625 C 11.332031 -27.769531 11.320312 -27.5625 11.46875 -27.4375 C 11.625 -27.3125 11.847656 -27.332031 12.140625 -27.5 C 13.191406 -28.21875 14.335938 -29.070312 15.578125 -30.0625 C 16.828125 -31.050781 18.007812 -32.113281 19.125 -33.25 C 20.238281 -34.382812 21.15625 -35.476562 21.875 -36.53125 C 22.59375 -37.59375 22.953125 -38.503906 22.953125 -39.265625 C 22.953125 -40.015625 22.550781 -40.390625 21.75 -40.390625 Z M 21.75 -40.390625 "/></g></g></g><g fill="#00ffff" fill-opacity="1"><g transform="translate(187.640464, 300.350854)"><g/></g></g><g fill="#00ffff" fill-opacity="1"><g transform="translate(204.708354, 300.350854)"><g><path d="M 17.328125 1.203125 C 15.972656 1.203125 14.863281 0.851562 14 0.15625 C 13.132812 -0.539062 12.476562 -1.375 12.03125 -2.34375 C 11.59375 -3.3125 11.3125 -4.21875 11.1875 -5.0625 C 11.144531 -5.519531 10.9375 -5.5625 10.5625 -5.1875 C 9.164062 -3.457031 7.832031 -2.316406 6.5625 -1.765625 C 5.300781 -1.222656 4.1875 -0.953125 3.21875 -0.953125 C 1.363281 -0.953125 -0.179688 -1.5625 -1.421875 -2.78125 C -2.660156 -4 -3.28125 -5.515625 -3.28125 -7.328125 C -3.28125 -9.222656 -2.898438 -11.085938 -2.140625 -12.921875 C -1.390625 -14.753906 -0.363281 -16.410156 0.9375 -17.890625 C 2.25 -19.367188 3.71875 -20.550781 5.34375 -21.4375 C 6.96875 -22.320312 8.664062 -22.765625 10.4375 -22.765625 C 11.0625 -22.765625 11.742188 -22.695312 12.484375 -22.5625 C 13.222656 -22.4375 13.863281 -22.207031 14.40625 -21.875 C 14.832031 -21.664062 15.128906 -21.75 15.296875 -22.125 C 15.972656 -23.300781 16.570312 -24.085938 17.09375 -24.484375 C 17.625 -24.890625 18.097656 -25.09375 18.515625 -25.09375 C 19.023438 -25.09375 19.507812 -24.925781 19.96875 -24.59375 C 20.4375 -24.257812 20.765625 -23.804688 20.953125 -23.234375 C 21.140625 -22.660156 21.046875 -22.039062 20.671875 -21.375 C 19.828125 -19.769531 19.003906 -18.09375 18.203125 -16.34375 C 17.398438 -14.59375 16.742188 -12.90625 16.234375 -11.28125 C 15.734375 -9.65625 15.484375 -8.210938 15.484375 -6.953125 C 15.484375 -5.941406 15.691406 -5.097656 16.109375 -4.421875 C 16.535156 -3.742188 17.109375 -3.40625 17.828125 -3.40625 C 18.878906 -3.40625 19.992188 -3.941406 21.171875 -5.015625 C 22.359375 -6.097656 23.570312 -7.4375 24.8125 -9.03125 C 26.050781 -10.632812 27.285156 -12.238281 28.515625 -13.84375 C 29.015625 -14.519531 29.570312 -14.921875 30.1875 -15.046875 C 30.800781 -15.171875 31.347656 -15.082031 31.828125 -14.78125 C 32.316406 -14.488281 32.613281 -14.046875 32.71875 -13.453125 C 32.820312 -12.867188 32.617188 -12.195312 32.109375 -11.4375 C 29.546875 -7.6875 27.082031 -4.640625 24.71875 -2.296875 C 22.351562 0.0351562 19.890625 1.203125 17.328125 1.203125 Z M 3.921875 -5.3125 C 4.929688 -5.3125 5.910156 -5.773438 6.859375 -6.703125 C 7.804688 -7.628906 8.691406 -8.753906 9.515625 -10.078125 C 10.335938 -11.410156 11.039062 -12.707031 11.625 -13.96875 C 12.21875 -15.238281 12.640625 -16.226562 12.890625 -16.9375 C 13.066406 -17.320312 12.960938 -17.597656 12.578125 -17.765625 C 12.160156 -17.972656 11.707031 -18.128906 11.21875 -18.234375 C 10.738281 -18.335938 10.304688 -18.390625 9.921875 -18.390625 C 8.867188 -18.390625 7.828125 -18.007812 6.796875 -17.25 C 5.765625 -16.5 4.847656 -15.550781 4.046875 -14.40625 C 3.242188 -13.269531 2.640625 -12.09375 2.234375 -10.875 C 1.835938 -9.65625 1.703125 -8.582031 1.828125 -7.65625 C 1.953125 -6.8125 2.203125 -6.207031 2.578125 -5.84375 C 2.960938 -5.488281 3.410156 -5.3125 3.921875 -5.3125 Z M 3.921875 -5.3125 "/></g></g></g><g fill="#00ffff" fill-opacity="1"><g transform="translate(234.924846, 300.350854)"><g><path d="M 26.171875 -13.84375 C 26.679688 -14.601562 27.238281 -15.023438 27.84375 -15.109375 C 28.457031 -15.191406 28.984375 -15.050781 29.421875 -14.6875 C 29.867188 -14.332031 30.15625 -13.859375 30.28125 -13.265625 C 30.40625 -12.679688 30.238281 -12.070312 29.78125 -11.4375 C 28.050781 -8.875 26.3125 -6.628906 24.5625 -4.703125 C 22.8125 -2.785156 20.96875 -1.28125 19.03125 -0.1875 C 17.09375 0.90625 14.941406 1.453125 12.578125 1.453125 C 10.804688 1.453125 9.253906 0.957031 7.921875 -0.03125 C 6.597656 -1.019531 5.578125 -2.359375 4.859375 -4.046875 C 4.148438 -5.734375 3.796875 -7.566406 3.796875 -9.546875 C 3.796875 -10.003906 3.835938 -10.59375 3.921875 -11.3125 C 4.003906 -12.03125 4.109375 -12.789062 4.234375 -13.59375 C 4.316406 -13.925781 4.265625 -14.125 4.078125 -14.1875 C 3.890625 -14.25 3.710938 -14.15625 3.546875 -13.90625 L 1.890625 -11.4375 C 1.265625 -10.550781 0.613281 -10.035156 -0.0625 -9.890625 C -0.738281 -9.742188 -1.296875 -9.835938 -1.734375 -10.171875 C -2.179688 -10.515625 -2.425781 -11.019531 -2.46875 -11.6875 C -2.507812 -12.363281 -2.253906 -13.082031 -1.703125 -13.84375 C -0.734375 -15.15625 0.398438 -16.726562 1.703125 -18.5625 C 3.015625 -20.394531 4.488281 -22.570312 6.125 -25.09375 C 6.382812 -25.5625 6.472656 -25.796875 6.390625 -25.796875 C 6.347656 -25.796875 6.316406 -25.804688 6.296875 -25.828125 C 6.273438 -25.847656 6.242188 -25.859375 6.203125 -25.859375 C 5.898438 -25.898438 5.441406 -25.820312 4.828125 -25.625 C 4.222656 -25.4375 3.601562 -25.175781 2.96875 -24.84375 C 2.289062 -24.46875 1.644531 -24.097656 1.03125 -23.734375 C 0.425781 -23.378906 -0.148438 -23.179688 -0.703125 -23.140625 C -1.117188 -23.097656 -1.535156 -23.222656 -1.953125 -23.515625 C -2.378906 -23.804688 -2.632812 -24.351562 -2.71875 -25.15625 C -2.757812 -26 -2.460938 -26.738281 -1.828125 -27.375 C -1.203125 -28.007812 -0.40625 -28.523438 0.5625 -28.921875 C 1.53125 -29.316406 2.539062 -29.617188 3.59375 -29.828125 C 4.65625 -30.046875 5.566406 -30.15625 6.328125 -30.15625 C 6.785156 -30.195312 7.210938 -30.207031 7.609375 -30.1875 C 8.015625 -30.164062 8.40625 -30.15625 8.78125 -30.15625 C 9.125 -30.113281 9.378906 -30.238281 9.546875 -30.53125 C 10.472656 -32.132812 11.125 -33.410156 11.5 -34.359375 C 11.882812 -35.304688 12.242188 -36.160156 12.578125 -36.921875 C 12.960938 -37.722656 13.382812 -38.488281 13.84375 -39.21875 C 14.3125 -39.957031 15.09375 -40.328125 16.1875 -40.328125 C 17.113281 -40.328125 17.765625 -39.9375 18.140625 -39.15625 C 18.523438 -38.382812 18.71875 -37.597656 18.71875 -36.796875 C 18.71875 -35.910156 18.328125 -34.894531 17.546875 -33.75 C 16.765625 -32.613281 15.890625 -31.351562 14.921875 -29.96875 C 14.578125 -29.5 14.679688 -29.222656 15.234375 -29.140625 C 16.328125 -29.015625 17.359375 -29.015625 18.328125 -29.140625 C 19.128906 -29.265625 19.835938 -29.535156 20.453125 -29.953125 C 21.066406 -30.378906 21.644531 -30.78125 22.1875 -31.15625 C 22.738281 -31.539062 23.285156 -31.734375 23.828125 -31.734375 C 24.585938 -31.773438 25.132812 -31.570312 25.46875 -31.125 C 25.8125 -30.6875 26.003906 -30.238281 26.046875 -29.78125 C 26.128906 -28.8125 25.726562 -27.96875 24.84375 -27.25 C 23.957031 -26.53125 22.9375 -25.957031 21.78125 -25.53125 C 20.625 -25.113281 19.644531 -24.863281 18.84375 -24.78125 C 17.613281 -24.695312 16.410156 -24.71875 15.234375 -24.84375 C 14.054688 -24.96875 13.109375 -25.070312 12.390625 -25.15625 C 12.097656 -25.195312 11.890625 -25.132812 11.765625 -24.96875 C 11.765625 -24.96875 11.71875 -24.882812 11.625 -24.71875 C 10.957031 -23.320312 10.367188 -21.71875 9.859375 -19.90625 C 9.359375 -18.101562 8.976562 -16.285156 8.71875 -14.453125 C 8.46875 -12.617188 8.34375 -10.921875 8.34375 -9.359375 C 8.34375 -7.335938 8.722656 -5.785156 9.484375 -4.703125 C 10.242188 -3.628906 11.488281 -3.09375 13.21875 -3.09375 C 14.8125 -3.09375 16.335938 -3.597656 17.796875 -4.609375 C 19.253906 -5.617188 20.675781 -6.945312 22.0625 -8.59375 C 23.457031 -10.238281 24.828125 -11.988281 26.171875 -13.84375 Z M 26.171875 -13.84375 "/></g></g></g><g fill="#fdb3fd" fill-opacity="1"><g transform="translate(69.348798, 297.655542)"><g><path d="M 17.953125 2.28125 C 15.171875 2.28125 12.832031 1.78125 10.9375 0.78125 C 9.039062 -0.207031 7.519531 -1.519531 6.375 -3.15625 C 5.238281 -4.800781 4.414062 -6.601562 3.90625 -8.5625 C 3.40625 -10.519531 3.15625 -12.46875 3.15625 -14.40625 C 3.15625 -16.8125 3.515625 -19.234375 4.234375 -21.671875 C 4.953125 -24.117188 5.972656 -26.457031 7.296875 -28.6875 C 8.628906 -30.925781 10.203125 -32.921875 12.015625 -34.671875 C 13.828125 -36.421875 15.816406 -37.800781 17.984375 -38.8125 C 20.148438 -39.820312 22.4375 -40.328125 24.84375 -40.328125 C 26.695312 -40.328125 28.335938 -39.925781 29.765625 -39.125 C 31.203125 -38.332031 32.34375 -37.238281 33.1875 -35.84375 C 34.03125 -34.457031 34.453125 -32.835938 34.453125 -30.984375 C 34.453125 -29.753906 34.226562 -28.53125 33.78125 -27.3125 C 33.34375 -26.09375 32.742188 -24.972656 31.984375 -23.953125 C 31.441406 -23.203125 30.875 -22.769531 30.28125 -22.65625 C 29.6875 -22.550781 29.164062 -22.664062 28.71875 -23 C 28.28125 -23.34375 28.03125 -23.816406 27.96875 -24.421875 C 27.90625 -25.035156 28.128906 -25.679688 28.640625 -26.359375 C 29.097656 -27.035156 29.441406 -27.765625 29.671875 -28.546875 C 29.910156 -29.328125 30.03125 -30.050781 30.03125 -30.71875 C 30.03125 -31.988281 29.609375 -33.171875 28.765625 -34.265625 C 27.921875 -35.359375 26.507812 -35.90625 24.53125 -35.90625 C 22.25 -35.90625 20.097656 -35.238281 18.078125 -33.90625 C 16.054688 -32.582031 14.273438 -30.847656 12.734375 -28.703125 C 11.203125 -26.554688 9.992188 -24.195312 9.109375 -21.625 C 8.222656 -19.050781 7.78125 -16.519531 7.78125 -14.03125 C 7.78125 -12.132812 8.125 -10.269531 8.8125 -8.4375 C 9.507812 -6.601562 10.671875 -5.109375 12.296875 -3.953125 C 13.921875 -2.796875 16.125 -2.257812 18.90625 -2.34375 C 22.144531 -2.46875 25.175781 -3.613281 28 -5.78125 C 30.820312 -7.957031 33.457031 -10.644531 35.90625 -13.84375 C 36.5 -14.601562 37.109375 -15.046875 37.734375 -15.171875 C 38.367188 -15.296875 38.925781 -15.195312 39.40625 -14.875 C 39.894531 -14.5625 40.179688 -14.085938 40.265625 -13.453125 C 40.347656 -12.828125 40.117188 -12.15625 39.578125 -11.4375 C 38.441406 -9.882812 37.132812 -8.296875 35.65625 -6.671875 C 34.175781 -5.046875 32.539062 -3.554688 30.75 -2.203125 C 28.957031 -0.859375 27 0.222656 24.875 1.046875 C 22.75 1.867188 20.441406 2.28125 17.953125 2.28125 Z M 17.953125 2.28125 "/></g></g></g><g fill="#fdb3fd" fill-opacity="1"><g transform="translate(106.961369, 297.655542)"><g><path d="M 17.328125 1.203125 C 15.972656 1.203125 14.863281 0.851562 14 0.15625 C 13.132812 -0.539062 12.476562 -1.375 12.03125 -2.34375 C 11.59375 -3.3125 11.3125 -4.21875 11.1875 -5.0625 C 11.144531 -5.519531 10.9375 -5.5625 10.5625 -5.1875 C 9.164062 -3.457031 7.832031 -2.316406 6.5625 -1.765625 C 5.300781 -1.222656 4.1875 -0.953125 3.21875 -0.953125 C 1.363281 -0.953125 -0.179688 -1.5625 -1.421875 -2.78125 C -2.660156 -4 -3.28125 -5.515625 -3.28125 -7.328125 C -3.28125 -9.222656 -2.898438 -11.085938 -2.140625 -12.921875 C -1.390625 -14.753906 -0.363281 -16.410156 0.9375 -17.890625 C 2.25 -19.367188 3.71875 -20.550781 5.34375 -21.4375 C 6.96875 -22.320312 8.664062 -22.765625 10.4375 -22.765625 C 11.0625 -22.765625 11.742188 -22.695312 12.484375 -22.5625 C 13.222656 -22.4375 13.863281 -22.207031 14.40625 -21.875 C 14.832031 -21.664062 15.128906 -21.75 15.296875 -22.125 C 15.972656 -23.300781 16.570312 -24.085938 17.09375 -24.484375 C 17.625 -24.890625 18.097656 -25.09375 18.515625 -25.09375 C 19.023438 -25.09375 19.507812 -24.925781 19.96875 -24.59375 C 20.4375 -24.257812 20.765625 -23.804688 20.953125 -23.234375 C 21.140625 -22.660156 21.046875 -22.039062 20.671875 -21.375 C 19.828125 -19.769531 19.003906 -18.09375 18.203125 -16.34375 C 17.398438 -14.59375 16.742188 -12.90625 16.234375 -11.28125 C 15.734375 -9.65625 15.484375 -8.210938 15.484375 -6.953125 C 15.484375 -5.941406 15.691406 -5.097656 16.109375 -4.421875 C 16.535156 -3.742188 17.109375 -3.40625 17.828125 -3.40625 C 18.878906 -3.40625 19.992188 -3.941406 21.171875 -5.015625 C 22.359375 -6.097656 23.570312 -7.4375 24.8125 -9.03125 C 26.050781 -10.632812 27.285156 -12.238281 28.515625 -13.84375 C 29.015625 -14.519531 29.570312 -14.921875 30.1875 -15.046875 C 30.800781 -15.171875 31.347656 -15.082031 31.828125 -14.78125 C 32.316406 -14.488281 32.613281 -14.046875 32.71875 -13.453125 C 32.820312 -12.867188 32.617188 -12.195312 32.109375 -11.4375 C 29.546875 -7.6875 27.082031 -4.640625 24.71875 -2.296875 C 22.351562 0.0351562 19.890625 1.203125 17.328125 1.203125 Z M 3.921875 -5.3125 C 4.929688 -5.3125 5.910156 -5.773438 6.859375 -6.703125 C 7.804688 -7.628906 8.691406 -8.753906 9.515625 -10.078125 C 10.335938 -11.410156 11.039062 -12.707031 11.625 -13.96875 C 12.21875 -15.238281 12.640625 -16.226562 12.890625 -16.9375 C 13.066406 -17.320312 12.960938 -17.597656 12.578125 -17.765625 C 12.160156 -17.972656 11.707031 -18.128906 11.21875 -18.234375 C 10.738281 -18.335938 10.304688 -18.390625 9.921875 -18.390625 C 8.867188 -18.390625 7.828125 -18.007812 6.796875 -17.25 C 5.765625 -16.5 4.847656 -15.550781 4.046875 -14.40625 C 3.242188 -13.269531 2.640625 -12.09375 2.234375 -10.875 C 1.835938 -9.65625 1.703125 -8.582031 1.828125 -7.65625 C 1.953125 -6.8125 2.203125 -6.207031 2.578125 -5.84375 C 2.960938 -5.488281 3.410156 -5.3125 3.921875 -5.3125 Z M 3.921875 -5.3125 "/></g></g></g><g fill="#fdb3fd" fill-opacity="1"><g transform="translate(137.17786, 297.655542)"><g><path d="M 24.96875 -13.84375 C 25.476562 -14.519531 26.023438 -14.910156 26.609375 -15.015625 C 27.203125 -15.117188 27.738281 -15.007812 28.21875 -14.6875 C 28.707031 -14.375 29.015625 -13.929688 29.140625 -13.359375 C 29.265625 -12.796875 29.078125 -12.15625 28.578125 -11.4375 C 26.847656 -9 25.015625 -6.875 23.078125 -5.0625 C 21.140625 -3.25 19.1875 -1.820312 17.21875 -0.78125 C 15.257812 0.25 13.375 0.765625 11.5625 0.765625 C 9.539062 0.765625 7.851562 0.21875 6.5 -0.875 C 5.15625 -1.976562 4.15625 -3.445312 3.5 -5.28125 C 2.851562 -7.113281 2.53125 -9.082031 2.53125 -11.1875 C 2.53125 -11.4375 2.5 -11.644531 2.4375 -11.8125 C 2.375 -11.988281 2.300781 -12.015625 2.21875 -11.890625 C 2.082031 -11.765625 1.972656 -11.613281 1.890625 -11.4375 C 1.265625 -10.382812 0.488281 -9.859375 -0.4375 -9.859375 C -1.113281 -9.859375 -1.617188 -10.046875 -1.953125 -10.421875 C -2.296875 -10.804688 -2.46875 -11.253906 -2.46875 -11.765625 C -2.46875 -12.429688 -2.210938 -13.125 -1.703125 -13.84375 C -0.941406 -14.851562 -0.078125 -15.988281 0.890625 -17.25 C 1.859375 -18.519531 2.972656 -20.164062 4.234375 -22.1875 C 4.316406 -22.3125 4.378906 -22.425781 4.421875 -22.53125 C 4.460938 -22.644531 4.503906 -22.765625 4.546875 -22.890625 C 5.859375 -27.359375 7.472656 -31.242188 9.390625 -34.546875 C 11.304688 -37.859375 13.359375 -40.441406 15.546875 -42.296875 C 17.742188 -44.148438 19.875 -45.078125 21.9375 -45.078125 C 23.539062 -45.078125 24.835938 -44.625 25.828125 -43.71875 C 26.816406 -42.8125 27.3125 -41.617188 27.3125 -40.140625 C 27.3125 -38.453125 26.867188 -36.796875 25.984375 -35.171875 C 25.097656 -33.554688 23.976562 -32.039062 22.625 -30.625 C 21.28125 -29.21875 19.878906 -27.941406 18.421875 -26.796875 C 16.972656 -25.660156 15.660156 -24.710938 14.484375 -23.953125 C 13.460938 -23.328125 12.53125 -22.757812 11.6875 -22.25 C 10.851562 -21.75 10.035156 -21.285156 9.234375 -20.859375 C 8.890625 -20.734375 8.695312 -20.523438 8.65625 -20.234375 C 8.320312 -18.796875 8.023438 -17.285156 7.765625 -15.703125 C 7.515625 -14.128906 7.390625 -12.601562 7.390625 -11.125 C 7.390625 -9.101562 7.707031 -7.375 8.34375 -5.9375 C 8.976562 -4.507812 10.097656 -3.796875 11.703125 -3.796875 C 13.503906 -3.796875 15.578125 -4.644531 17.921875 -6.34375 C 20.265625 -8.050781 22.613281 -10.550781 24.96875 -13.84375 Z M 21.75 -40.390625 C 20.863281 -40.390625 19.9375 -39.957031 18.96875 -39.09375 C 18 -38.238281 17.039062 -37.15625 16.09375 -35.84375 C 15.144531 -34.539062 14.269531 -33.191406 13.46875 -31.796875 C 12.664062 -30.410156 12.007812 -29.164062 11.5 -28.0625 C 11.332031 -27.769531 11.320312 -27.5625 11.46875 -27.4375 C 11.625 -27.3125 11.847656 -27.332031 12.140625 -27.5 C 13.191406 -28.21875 14.335938 -29.070312 15.578125 -30.0625 C 16.828125 -31.050781 18.007812 -32.113281 19.125 -33.25 C 20.238281 -34.382812 21.15625 -35.476562 21.875 -36.53125 C 22.59375 -37.59375 22.953125 -38.503906 22.953125 -39.265625 C 22.953125 -40.015625 22.550781 -40.390625 21.75 -40.390625 Z M 21.75 -40.390625 "/></g></g></g><g fill="#fdb3fd" fill-opacity="1"><g transform="translate(163.854347, 297.655542)"><g><path d="M 24.96875 -13.84375 C 25.476562 -14.519531 26.023438 -14.910156 26.609375 -15.015625 C 27.203125 -15.117188 27.738281 -15.007812 28.21875 -14.6875 C 28.707031 -14.375 29.015625 -13.929688 29.140625 -13.359375 C 29.265625 -12.796875 29.078125 -12.15625 28.578125 -11.4375 C 26.847656 -9 25.015625 -6.875 23.078125 -5.0625 C 21.140625 -3.25 19.1875 -1.820312 17.21875 -0.78125 C 15.257812 0.25 13.375 0.765625 11.5625 0.765625 C 9.539062 0.765625 7.851562 0.21875 6.5 -0.875 C 5.15625 -1.976562 4.15625 -3.445312 3.5 -5.28125 C 2.851562 -7.113281 2.53125 -9.082031 2.53125 -11.1875 C 2.53125 -11.4375 2.5 -11.644531 2.4375 -11.8125 C 2.375 -11.988281 2.300781 -12.015625 2.21875 -11.890625 C 2.082031 -11.765625 1.972656 -11.613281 1.890625 -11.4375 C 1.265625 -10.382812 0.488281 -9.859375 -0.4375 -9.859375 C -1.113281 -9.859375 -1.617188 -10.046875 -1.953125 -10.421875 C -2.296875 -10.804688 -2.46875 -11.253906 -2.46875 -11.765625 C -2.46875 -12.429688 -2.210938 -13.125 -1.703125 -13.84375 C -0.941406 -14.851562 -0.078125 -15.988281 0.890625 -17.25 C 1.859375 -18.519531 2.972656 -20.164062 4.234375 -22.1875 C 4.316406 -22.3125 4.378906 -22.425781 4.421875 -22.53125 C 4.460938 -22.644531 4.503906 -22.765625 4.546875 -22.890625 C 5.859375 -27.359375 7.472656 -31.242188 9.390625 -34.546875 C 11.304688 -37.859375 13.359375 -40.441406 15.546875 -42.296875 C 17.742188 -44.148438 19.875 -45.078125 21.9375 -45.078125 C 23.539062 -45.078125 24.835938 -44.625 25.828125 -43.71875 C 26.816406 -42.8125 27.3125 -41.617188 27.3125 -40.140625 C 27.3125 -38.453125 26.867188 -36.796875 25.984375 -35.171875 C 25.097656 -33.554688 23.976562 -32.039062 22.625 -30.625 C 21.28125 -29.21875 19.878906 -27.941406 18.421875 -26.796875 C 16.972656 -25.660156 15.660156 -24.710938 14.484375 -23.953125 C 13.460938 -23.328125 12.53125 -22.757812 11.6875 -22.25 C 10.851562 -21.75 10.035156 -21.285156 9.234375 -20.859375 C 8.890625 -20.734375 8.695312 -20.523438 8.65625 -20.234375 C 8.320312 -18.796875 8.023438 -17.285156 7.765625 -15.703125 C 7.515625 -14.128906 7.390625 -12.601562 7.390625 -11.125 C 7.390625 -9.101562 7.707031 -7.375 8.34375 -5.9375 C 8.976562 -4.507812 10.097656 -3.796875 11.703125 -3.796875 C 13.503906 -3.796875 15.578125 -4.644531 17.921875 -6.34375 C 20.265625 -8.050781 22.613281 -10.550781 24.96875 -13.84375 Z M 21.75 -40.390625 C 20.863281 -40.390625 19.9375 -39.957031 18.96875 -39.09375 C 18 -38.238281 17.039062 -37.15625 16.09375 -35.84375 C 15.144531 -34.539062 14.269531 -33.191406 13.46875 -31.796875 C 12.664062 -30.410156 12.007812 -29.164062 11.5 -28.0625 C 11.332031 -27.769531 11.320312 -27.5625 11.46875 -27.4375 C 11.625 -27.3125 11.847656 -27.332031 12.140625 -27.5 C 13.191406 -28.21875 14.335938 -29.070312 15.578125 -30.0625 C 16.828125 -31.050781 18.007812 -32.113281 19.125 -33.25 C 20.238281 -34.382812 21.15625 -35.476562 21.875 -36.53125 C 22.59375 -37.59375 22.953125 -38.503906 22.953125 -39.265625 C 22.953125 -40.015625 22.550781 -40.390625 21.75 -40.390625 Z M 21.75 -40.390625 "/></g></g></g><g fill="#fdb3fd" fill-opacity="1"><g transform="translate(190.530833, 297.655542)"><g/></g></g><g fill="#fdb3fd" fill-opacity="1"><g transform="translate(207.598724, 297.655542)"><g><path d="M 17.328125 1.203125 C 15.972656 1.203125 14.863281 0.851562 14 0.15625 C 13.132812 -0.539062 12.476562 -1.375 12.03125 -2.34375 C 11.59375 -3.3125 11.3125 -4.21875 11.1875 -5.0625 C 11.144531 -5.519531 10.9375 -5.5625 10.5625 -5.1875 C 9.164062 -3.457031 7.832031 -2.316406 6.5625 -1.765625 C 5.300781 -1.222656 4.1875 -0.953125 3.21875 -0.953125 C 1.363281 -0.953125 -0.179688 -1.5625 -1.421875 -2.78125 C -2.660156 -4 -3.28125 -5.515625 -3.28125 -7.328125 C -3.28125 -9.222656 -2.898438 -11.085938 -2.140625 -12.921875 C -1.390625 -14.753906 -0.363281 -16.410156 0.9375 -17.890625 C 2.25 -19.367188 3.71875 -20.550781 5.34375 -21.4375 C 6.96875 -22.320312 8.664062 -22.765625 10.4375 -22.765625 C 11.0625 -22.765625 11.742188 -22.695312 12.484375 -22.5625 C 13.222656 -22.4375 13.863281 -22.207031 14.40625 -21.875 C 14.832031 -21.664062 15.128906 -21.75 15.296875 -22.125 C 15.972656 -23.300781 16.570312 -24.085938 17.09375 -24.484375 C 17.625 -24.890625 18.097656 -25.09375 18.515625 -25.09375 C 19.023438 -25.09375 19.507812 -24.925781 19.96875 -24.59375 C 20.4375 -24.257812 20.765625 -23.804688 20.953125 -23.234375 C 21.140625 -22.660156 21.046875 -22.039062 20.671875 -21.375 C 19.828125 -19.769531 19.003906 -18.09375 18.203125 -16.34375 C 17.398438 -14.59375 16.742188 -12.90625 16.234375 -11.28125 C 15.734375 -9.65625 15.484375 -8.210938 15.484375 -6.953125 C 15.484375 -5.941406 15.691406 -5.097656 16.109375 -4.421875 C 16.535156 -3.742188 17.109375 -3.40625 17.828125 -3.40625 C 18.878906 -3.40625 19.992188 -3.941406 21.171875 -5.015625 C 22.359375 -6.097656 23.570312 -7.4375 24.8125 -9.03125 C 26.050781 -10.632812 27.285156 -12.238281 28.515625 -13.84375 C 29.015625 -14.519531 29.570312 -14.921875 30.1875 -15.046875 C 30.800781 -15.171875 31.347656 -15.082031 31.828125 -14.78125 C 32.316406 -14.488281 32.613281 -14.046875 32.71875 -13.453125 C 32.820312 -12.867188 32.617188 -12.195312 32.109375 -11.4375 C 29.546875 -7.6875 27.082031 -4.640625 24.71875 -2.296875 C 22.351562 0.0351562 19.890625 1.203125 17.328125 1.203125 Z M 3.921875 -5.3125 C 4.929688 -5.3125 5.910156 -5.773438 6.859375 -6.703125 C 7.804688 -7.628906 8.691406 -8.753906 9.515625 -10.078125 C 10.335938 -11.410156 11.039062 -12.707031 11.625 -13.96875 C 12.21875 -15.238281 12.640625 -16.226562 12.890625 -16.9375 C 13.066406 -17.320312 12.960938 -17.597656 12.578125 -17.765625 C 12.160156 -17.972656 11.707031 -18.128906 11.21875 -18.234375 C 10.738281 -18.335938 10.304688 -18.390625 9.921875 -18.390625 C 8.867188 -18.390625 7.828125 -18.007812 6.796875 -17.25 C 5.765625 -16.5 4.847656 -15.550781 4.046875 -14.40625 C 3.242188 -13.269531 2.640625 -12.09375 2.234375 -10.875 C 1.835938 -9.65625 1.703125 -8.582031 1.828125 -7.65625 C 1.953125 -6.8125 2.203125 -6.207031 2.578125 -5.84375 C 2.960938 -5.488281 3.410156 -5.3125 3.921875 -5.3125 Z M 3.921875 -5.3125 "/></g></g></g><g fill="#fdb3fd" fill-opacity="1"><g transform="translate(237.815215, 297.655542)"><g><path d="M 26.171875 -13.84375 C 26.679688 -14.601562 27.238281 -15.023438 27.84375 -15.109375 C 28.457031 -15.191406 28.984375 -15.050781 29.421875 -14.6875 C 29.867188 -14.332031 30.15625 -13.859375 30.28125 -13.265625 C 30.40625 -12.679688 30.238281 -12.070312 29.78125 -11.4375 C 28.050781 -8.875 26.3125 -6.628906 24.5625 -4.703125 C 22.8125 -2.785156 20.96875 -1.28125 19.03125 -0.1875 C 17.09375 0.90625 14.941406 1.453125 12.578125 1.453125 C 10.804688 1.453125 9.253906 0.957031 7.921875 -0.03125 C 6.597656 -1.019531 5.578125 -2.359375 4.859375 -4.046875 C 4.148438 -5.734375 3.796875 -7.566406 3.796875 -9.546875 C 3.796875 -10.003906 3.835938 -10.59375 3.921875 -11.3125 C 4.003906 -12.03125 4.109375 -12.789062 4.234375 -13.59375 C 4.316406 -13.925781 4.265625 -14.125 4.078125 -14.1875 C 3.890625 -14.25 3.710938 -14.15625 3.546875 -13.90625 L 1.890625 -11.4375 C 1.265625 -10.550781 0.613281 -10.035156 -0.0625 -9.890625 C -0.738281 -9.742188 -1.296875 -9.835938 -1.734375 -10.171875 C -2.179688 -10.515625 -2.425781 -11.019531 -2.46875 -11.6875 C -2.507812 -12.363281 -2.253906 -13.082031 -1.703125 -13.84375 C -0.734375 -15.15625 0.398438 -16.726562 1.703125 -18.5625 C 3.015625 -20.394531 4.488281 -22.570312 6.125 -25.09375 C 6.382812 -25.5625 6.472656 -25.796875 6.390625 -25.796875 C 6.347656 -25.796875 6.316406 -25.804688 6.296875 -25.828125 C 6.273438 -25.847656 6.242188 -25.859375 6.203125 -25.859375 C 5.898438 -25.898438 5.441406 -25.820312 4.828125 -25.625 C 4.222656 -25.4375 3.601562 -25.175781 2.96875 -24.84375 C 2.289062 -24.46875 1.644531 -24.097656 1.03125 -23.734375 C 0.425781 -23.378906 -0.148438 -23.179688 -0.703125 -23.140625 C -1.117188 -23.097656 -1.535156 -23.222656 -1.953125 -23.515625 C -2.378906 -23.804688 -2.632812 -24.351562 -2.71875 -25.15625 C -2.757812 -26 -2.460938 -26.738281 -1.828125 -27.375 C -1.203125 -28.007812 -0.40625 -28.523438 0.5625 -28.921875 C 1.53125 -29.316406 2.539062 -29.617188 3.59375 -29.828125 C 4.65625 -30.046875 5.566406 -30.15625 6.328125 -30.15625 C 6.785156 -30.195312 7.210938 -30.207031 7.609375 -30.1875 C 8.015625 -30.164062 8.40625 -30.15625 8.78125 -30.15625 C 9.125 -30.113281 9.378906 -30.238281 9.546875 -30.53125 C 10.472656 -32.132812 11.125 -33.410156 11.5 -34.359375 C 11.882812 -35.304688 12.242188 -36.160156 12.578125 -36.921875 C 12.960938 -37.722656 13.382812 -38.488281 13.84375 -39.21875 C 14.3125 -39.957031 15.09375 -40.328125 16.1875 -40.328125 C 17.113281 -40.328125 17.765625 -39.9375 18.140625 -39.15625 C 18.523438 -38.382812 18.71875 -37.597656 18.71875 -36.796875 C 18.71875 -35.910156 18.328125 -34.894531 17.546875 -33.75 C 16.765625 -32.613281 15.890625 -31.351562 14.921875 -29.96875 C 14.578125 -29.5 14.679688 -29.222656 15.234375 -29.140625 C 16.328125 -29.015625 17.359375 -29.015625 18.328125 -29.140625 C 19.128906 -29.265625 19.835938 -29.535156 20.453125 -29.953125 C 21.066406 -30.378906 21.644531 -30.78125 22.1875 -31.15625 C 22.738281 -31.539062 23.285156 -31.734375 23.828125 -31.734375 C 24.585938 -31.773438 25.132812 -31.570312 25.46875 -31.125 C 25.8125 -30.6875 26.003906 -30.238281 26.046875 -29.78125 C 26.128906 -28.8125 25.726562 -27.96875 24.84375 -27.25 C 23.957031 -26.53125 22.9375 -25.957031 21.78125 -25.53125 C 20.625 -25.113281 19.644531 -24.863281 18.84375 -24.78125 C 17.613281 -24.695312 16.410156 -24.71875 15.234375 -24.84375 C 14.054688 -24.96875 13.109375 -25.070312 12.390625 -25.15625 C 12.097656 -25.195312 11.890625 -25.132812 11.765625 -24.96875 C 11.765625 -24.96875 11.71875 -24.882812 11.625 -24.71875 C 10.957031 -23.320312 10.367188 -21.71875 9.859375 -19.90625 C 9.359375 -18.101562 8.976562 -16.285156 8.71875 -14.453125 C 8.46875 -12.617188 8.34375 -10.921875 8.34375 -9.359375 C 8.34375 -7.335938 8.722656 -5.785156 9.484375 -4.703125 C 10.242188 -3.628906 11.488281 -3.09375 13.21875 -3.09375 C 14.8125 -3.09375 16.335938 -3.597656 17.796875 -4.609375 C 19.253906 -5.617188 20.675781 -6.945312 22.0625 -8.59375 C 23.457031 -10.238281 24.828125 -11.988281 26.171875 -13.84375 Z M 26.171875 -13.84375 "/></g></g></g><g fill="#ff0000" fill-opacity="1"><g transform="translate(26.106605, 331.65382)"><g><path d="M 9.46875 -9.46875 L 6.3125 -9.46875 L 6.3125 -15.78125 L 0 -15.78125 L 0 -18.921875 L 6.3125 -18.921875 L 6.3125 -25.234375 L 9.46875 -25.234375 L 9.46875 -18.921875 L 15.78125 -18.921875 L 15.78125 -15.78125 L 9.46875 -15.78125 Z M 9.46875 -9.46875 "/></g></g></g><g fill="#ff0000" fill-opacity="1"><g transform="translate(48.238916, 331.65382)"><g><path d="M 0 -9.46875 L 3.15625 -9.46875 L 3.15625 -3.15625 L 0 -3.15625 Z M 0 -15.78125 L 0 -28.390625 L 3.15625 -28.390625 L 3.15625 -15.78125 Z M 3.15625 0 L 3.15625 -3.15625 L 15.78125 -3.15625 L 15.78125 0 Z M 3.15625 -12.625 L 3.15625 -15.78125 L 15.78125 -15.78125 L 15.78125 -28.390625 L 18.921875 -28.390625 L 18.921875 -3.15625 L 15.78125 -3.15625 L 15.78125 -12.625 Z M 3.15625 -28.390625 L 3.15625 -31.546875 L 15.78125 -31.546875 L 15.78125 -28.390625 Z M 3.15625 -28.390625 "/></g></g></g><g fill="#ff0000" fill-opacity="1"><g transform="translate(73.525358, 331.65382)"><g><path d="M 0 -28.390625 L 3.15625 -28.390625 L 3.15625 -25.234375 L 0 -25.234375 Z M 3.15625 -28.390625 L 3.15625 -31.546875 L 15.78125 -31.546875 L 15.78125 -28.390625 Z M 6.3125 0 L 6.3125 -15.78125 L 9.46875 -15.78125 L 9.46875 0 Z M 9.46875 -15.78125 L 9.46875 -18.921875 L 15.78125 -18.921875 L 15.78125 -15.78125 Z M 15.78125 -18.921875 L 15.78125 -28.390625 L 18.921875 -28.390625 L 18.921875 -18.921875 Z M 15.78125 -18.921875 "/></g></g></g><g fill="#ff0000" fill-opacity="1"><g transform="translate(98.8118, 331.65382)"><g><path d="M 18.921875 -3.15625 L 15.78125 -3.15625 L 15.78125 -15.78125 L 18.921875 -15.78125 Z M 0 -3.15625 L 0 -9.46875 L 3.15625 -9.46875 L 3.15625 -3.15625 Z M 0 -18.921875 L 0 -28.390625 L 3.15625 -28.390625 L 3.15625 -18.921875 Z M 3.15625 0 L 3.15625 -3.15625 L 15.78125 -3.15625 L 15.78125 0 Z M 3.15625 -15.78125 L 3.15625 -18.921875 L 15.78125 -18.921875 L 15.78125 -15.78125 Z M 3.15625 -28.390625 L 3.15625 -31.546875 L 15.78125 -31.546875 L 15.78125 -28.390625 Z M 15.78125 -25.234375 L 15.78125 -28.390625 L 18.921875 -28.390625 L 18.921875 -25.234375 Z M 15.78125 -25.234375 "/></g></g></g><g fill="#ff0000" fill-opacity="1"><g transform="translate(124.098242, 331.65382)"><g><path d="M 0 -28.390625 L 3.15625 -28.390625 L 3.15625 -25.234375 L 0 -25.234375 Z M 3.15625 -28.390625 L 3.15625 -31.546875 L 15.78125 -31.546875 L 15.78125 -28.390625 Z M 6.3125 0 L 6.3125 -15.78125 L 9.46875 -15.78125 L 9.46875 0 Z M 9.46875 -15.78125 L 9.46875 -18.921875 L 15.78125 -18.921875 L 15.78125 -15.78125 Z M 15.78125 -18.921875 L 15.78125 -28.390625 L 18.921875 -28.390625 L 18.921875 -18.921875 Z M 15.78125 -18.921875 "/></g></g></g><g fill="#ff0000" fill-opacity="1"><g transform="translate(149.384684, 331.65382)"><g><path d="M 0 -28.390625 L 3.15625 -28.390625 L 3.15625 -25.234375 L 0 -25.234375 Z M 3.15625 -28.390625 L 3.15625 -31.546875 L 15.78125 -31.546875 L 15.78125 -28.390625 Z M 6.3125 0 L 6.3125 -15.78125 L 9.46875 -15.78125 L 9.46875 0 Z M 9.46875 -15.78125 L 9.46875 -18.921875 L 15.78125 -18.921875 L 15.78125 -15.78125 Z M 15.78125 -18.921875 L 15.78125 -28.390625 L 18.921875 -28.390625 L 18.921875 -18.921875 Z M 15.78125 -18.921875 "/></g></g></g><g fill="#ff0000" fill-opacity="1"><g transform="translate(174.671126, 331.65382)"><g><path d="M 0 -15.78125 L 3.15625 -15.78125 L 3.15625 -3.15625 L 0 -3.15625 Z M 0 -18.921875 L 0 -28.390625 L 3.15625 -28.390625 L 3.15625 -18.921875 Z M 3.15625 0 L 3.15625 -3.15625 L 15.78125 -3.15625 L 15.78125 0 Z M 3.15625 -15.78125 L 3.15625 -18.921875 L 15.78125 -18.921875 L 15.78125 -15.78125 Z M 3.15625 -28.390625 L 3.15625 -31.546875 L 15.78125 -31.546875 L 15.78125 -28.390625 Z M 15.78125 -3.15625 L 15.78125 -15.78125 L 18.921875 -15.78125 L 18.921875 -3.15625 Z M 15.78125 -18.921875 L 15.78125 -28.390625 L 18.921875 -28.390625 L 18.921875 -18.921875 Z M 15.78125 -18.921875 "/></g></g></g><g fill="#ff0000" fill-opacity="1"><g transform="translate(199.957568, 331.65382)"><g><path d="M 0 -9.46875 L 3.15625 -9.46875 L 3.15625 -3.15625 L 0 -3.15625 Z M 0 -15.78125 L 0 -28.390625 L 3.15625 -28.390625 L 3.15625 -15.78125 Z M 3.15625 0 L 3.15625 -3.15625 L 15.78125 -3.15625 L 15.78125 0 Z M 3.15625 -12.625 L 3.15625 -15.78125 L 15.78125 -15.78125 L 15.78125 -28.390625 L 18.921875 -28.390625 L 18.921875 -3.15625 L 15.78125 -3.15625 L 15.78125 -12.625 Z M 3.15625 -28.390625 L 3.15625 -31.546875 L 15.78125 -31.546875 L 15.78125 -28.390625 Z M 3.15625 -28.390625 "/></g></g></g><g fill="#ff0000" fill-opacity="1"><g transform="translate(225.243998, 331.65382)"><g><path d="M 6.3125 -28.390625 L 9.46875 -28.390625 L 9.46875 0 L 6.3125 0 Z M 0 -28.390625 L 0 -31.546875 L 6.3125 -31.546875 L 6.3125 -28.390625 Z M 0 -28.390625 "/></g></g></g><g fill="#ff0000" fill-opacity="1"><g transform="translate(241.068039, 331.65382)"><g><path d="M 0 -31.546875 L 3.15625 -31.546875 L 3.15625 -18.921875 L 0 -18.921875 Z M 3.15625 -15.78125 L 3.15625 -18.921875 L 15.78125 -18.921875 L 15.78125 -15.78125 Z M 15.78125 0 L 15.78125 -15.78125 L 18.921875 -15.78125 L 18.921875 0 Z M 15.78125 -18.921875 L 15.78125 -31.546875 L 18.921875 -31.546875 L 18.921875 -18.921875 Z M 15.78125 -18.921875 "/></g></g></g><g fill="#ff0000" fill-opacity="1"><g transform="translate(266.354481, 331.65382)"><g><path d="M 0 -31.546875 L 3.15625 -31.546875 L 3.15625 -18.921875 L 0 -18.921875 Z M 3.15625 -15.78125 L 3.15625 -18.921875 L 15.78125 -18.921875 L 15.78125 -15.78125 Z M 15.78125 0 L 15.78125 -15.78125 L 18.921875 -15.78125 L 18.921875 0 Z M 15.78125 -18.921875 L 15.78125 -31.546875 L 18.921875 -31.546875 L 18.921875 -18.921875 Z M 15.78125 -18.921875 "/></g></g></g><g fill="#ff0000" fill-opacity="1"><g transform="translate(291.640923, 331.65382)"><g><path d="M 0 -9.46875 L 3.15625 -9.46875 L 3.15625 -3.15625 L 0 -3.15625 Z M 0 -22.078125 L 0 -28.390625 L 3.15625 -28.390625 L 3.15625 -22.078125 Z M 3.15625 0 L 3.15625 -3.15625 L 15.78125 -3.15625 L 15.78125 0 Z M 3.15625 -28.390625 L 3.15625 -31.546875 L 15.78125 -31.546875 L 15.78125 -28.390625 Z M 6.3125 -15.78125 L 6.3125 -18.921875 L 15.78125 -18.921875 L 15.78125 -15.78125 Z M 15.78125 -3.15625 L 15.78125 -15.78125 L 18.921875 -15.78125 L 18.921875 -3.15625 Z M 15.78125 -18.921875 L 15.78125 -28.390625 L 18.921875 -28.390625 L 18.921875 -18.921875 Z M 15.78125 -18.921875 "/></g></g></g><g fill="#00ffff" fill-opacity="1"><g transform="translate(21.299589, 336.136417)"><g><path d="M 9.46875 -9.46875 L 6.3125 -9.46875 L 6.3125 -15.78125 L 0 -15.78125 L 0 -18.921875 L 6.3125 -18.921875 L 6.3125 -25.234375 L 9.46875 -25.234375 L 9.46875 -18.921875 L 15.78125 -18.921875 L 15.78125 -15.78125 L 9.46875 -15.78125 Z M 9.46875 -9.46875 "/></g></g></g><g fill="#00ffff" fill-opacity="1"><g transform="translate(43.4319, 336.136417)"><g><path d="M 0 -9.46875 L 3.15625 -9.46875 L 3.15625 -3.15625 L 0 -3.15625 Z M 0 -15.78125 L 0 -28.390625 L 3.15625 -28.390625 L 3.15625 -15.78125 Z M 3.15625 0 L 3.15625 -3.15625 L 15.78125 -3.15625 L 15.78125 0 Z M 3.15625 -12.625 L 3.15625 -15.78125 L 15.78125 -15.78125 L 15.78125 -28.390625 L 18.921875 -28.390625 L 18.921875 -3.15625 L 15.78125 -3.15625 L 15.78125 -12.625 Z M 3.15625 -28.390625 L 3.15625 -31.546875 L 15.78125 -31.546875 L 15.78125 -28.390625 Z M 3.15625 -28.390625 "/></g></g></g><g fill="#00ffff" fill-opacity="1"><g transform="translate(68.718342, 336.136417)"><g><path d="M 0 -28.390625 L 3.15625 -28.390625 L 3.15625 -25.234375 L 0 -25.234375 Z M 3.15625 -28.390625 L 3.15625 -31.546875 L 15.78125 -31.546875 L 15.78125 -28.390625 Z M 6.3125 0 L 6.3125 -15.78125 L 9.46875 -15.78125 L 9.46875 0 Z M 9.46875 -15.78125 L 9.46875 -18.921875 L 15.78125 -18.921875 L 15.78125 -15.78125 Z M 15.78125 -18.921875 L 15.78125 -28.390625 L 18.921875 -28.390625 L 18.921875 -18.921875 Z M 15.78125 -18.921875 "/></g></g></g><g fill="#00ffff" fill-opacity="1"><g transform="translate(94.004783, 336.136417)"><g><path d="M 18.921875 -3.15625 L 15.78125 -3.15625 L 15.78125 -15.78125 L 18.921875 -15.78125 Z M 0 -3.15625 L 0 -9.46875 L 3.15625 -9.46875 L 3.15625 -3.15625 Z M 0 -18.921875 L 0 -28.390625 L 3.15625 -28.390625 L 3.15625 -18.921875 Z M 3.15625 0 L 3.15625 -3.15625 L 15.78125 -3.15625 L 15.78125 0 Z M 3.15625 -15.78125 L 3.15625 -18.921875 L 15.78125 -18.921875 L 15.78125 -15.78125 Z M 3.15625 -28.390625 L 3.15625 -31.546875 L 15.78125 -31.546875 L 15.78125 -28.390625 Z M 15.78125 -25.234375 L 15.78125 -28.390625 L 18.921875 -28.390625 L 18.921875 -25.234375 Z M 15.78125 -25.234375 "/></g></g></g><g fill="#00ffff" fill-opacity="1"><g transform="translate(119.291225, 336.136417)"><g><path d="M 0 -28.390625 L 3.15625 -28.390625 L 3.15625 -25.234375 L 0 -25.234375 Z M 3.15625 -28.390625 L 3.15625 -31.546875 L 15.78125 -31.546875 L 15.78125 -28.390625 Z M 6.3125 0 L 6.3125 -15.78125 L 9.46875 -15.78125 L 9.46875 0 Z M 9.46875 -15.78125 L 9.46875 -18.921875 L 15.78125 -18.921875 L 15.78125 -15.78125 Z M 15.78125 -18.921875 L 15.78125 -28.390625 L 18.921875 -28.390625 L 18.921875 -18.921875 Z M 15.78125 -18.921875 "/></g></g></g><g fill="#00ffff" fill-opacity="1"><g transform="translate(144.577667, 336.136417)"><g><path d="M 0 -28.390625 L 3.15625 -28.390625 L 3.15625 -25.234375 L 0 -25.234375 Z M 3.15625 -28.390625 L 3.15625 -31.546875 L 15.78125 -31.546875 L 15.78125 -28.390625 Z M 6.3125 0 L 6.3125 -15.78125 L 9.46875 -15.78125 L 9.46875 0 Z M 9.46875 -15.78125 L 9.46875 -18.921875 L 15.78125 -18.921875 L 15.78125 -15.78125 Z M 15.78125 -18.921875 L 15.78125 -28.390625 L 18.921875 -28.390625 L 18.921875 -18.921875 Z M 15.78125 -18.921875 "/></g></g></g><g fill="#00ffff" fill-opacity="1"><g transform="translate(169.864109, 336.136417)"><g><path d="M 0 -15.78125 L 3.15625 -15.78125 L 3.15625 -3.15625 L 0 -3.15625 Z M 0 -18.921875 L 0 -28.390625 L 3.15625 -28.390625 L 3.15625 -18.921875 Z M 3.15625 0 L 3.15625 -3.15625 L 15.78125 -3.15625 L 15.78125 0 Z M 3.15625 -15.78125 L 3.15625 -18.921875 L 15.78125 -18.921875 L 15.78125 -15.78125 Z M 3.15625 -28.390625 L 3.15625 -31.546875 L 15.78125 -31.546875 L 15.78125 -28.390625 Z M 15.78125 -3.15625 L 15.78125 -15.78125 L 18.921875 -15.78125 L 18.921875 -3.15625 Z M 15.78125 -18.921875 L 15.78125 -28.390625 L 18.921875 -28.390625 L 18.921875 -18.921875 Z M 15.78125 -18.921875 "/></g></g></g><g fill="#00ffff" fill-opacity="1"><g transform="translate(195.150551, 336.136417)"><g><path d="M 0 -9.46875 L 3.15625 -9.46875 L 3.15625 -3.15625 L 0 -3.15625 Z M 0 -15.78125 L 0 -28.390625 L 3.15625 -28.390625 L 3.15625 -15.78125 Z M 3.15625 0 L 3.15625 -3.15625 L 15.78125 -3.15625 L 15.78125 0 Z M 3.15625 -12.625 L 3.15625 -15.78125 L 15.78125 -15.78125 L 15.78125 -28.390625 L 18.921875 -28.390625 L 18.921875 -3.15625 L 15.78125 -3.15625 L 15.78125 -12.625 Z M 3.15625 -28.390625 L 3.15625 -31.546875 L 15.78125 -31.546875 L 15.78125 -28.390625 Z M 3.15625 -28.390625 "/></g></g></g><g fill="#00ffff" fill-opacity="1"><g transform="translate(220.436981, 336.136417)"><g><path d="M 6.3125 -28.390625 L 9.46875 -28.390625 L 9.46875 0 L 6.3125 0 Z M 0 -28.390625 L 0 -31.546875 L 6.3125 -31.546875 L 6.3125 -28.390625 Z M 0 -28.390625 "/></g></g></g><g fill="#00ffff" fill-opacity="1"><g transform="translate(236.261022, 336.136417)"><g><path d="M 0 -31.546875 L 3.15625 -31.546875 L 3.15625 -18.921875 L 0 -18.921875 Z M 3.15625 -15.78125 L 3.15625 -18.921875 L 15.78125 -18.921875 L 15.78125 -15.78125 Z M 15.78125 0 L 15.78125 -15.78125 L 18.921875 -15.78125 L 18.921875 0 Z M 15.78125 -18.921875 L 15.78125 -31.546875 L 18.921875 -31.546875 L 18.921875 -18.921875 Z M 15.78125 -18.921875 "/></g></g></g><g fill="#00ffff" fill-opacity="1"><g transform="translate(261.547464, 336.136417)"><g><path d="M 0 -31.546875 L 3.15625 -31.546875 L 3.15625 -18.921875 L 0 -18.921875 Z M 3.15625 -15.78125 L 3.15625 -18.921875 L 15.78125 -18.921875 L 15.78125 -15.78125 Z M 15.78125 0 L 15.78125 -15.78125 L 18.921875 -15.78125 L 18.921875 0 Z M 15.78125 -18.921875 L 15.78125 -31.546875 L 18.921875 -31.546875 L 18.921875 -18.921875 Z M 15.78125 -18.921875 "/></g></g></g><g fill="#00ffff" fill-opacity="1"><g transform="translate(286.833906, 336.136417)"><g><path d="M 0 -9.46875 L 3.15625 -9.46875 L 3.15625 -3.15625 L 0 -3.15625 Z M 0 -22.078125 L 0 -28.390625 L 3.15625 -28.390625 L 3.15625 -22.078125 Z M 3.15625 0 L 3.15625 -3.15625 L 15.78125 -3.15625 L 15.78125 0 Z M 3.15625 -28.390625 L 3.15625 -31.546875 L 15.78125 -31.546875 L 15.78125 -28.390625 Z M 6.3125 -15.78125 L 6.3125 -18.921875 L 15.78125 -18.921875 L 15.78125 -15.78125 Z M 15.78125 -3.15625 L 15.78125 -15.78125 L 18.921875 -15.78125 L 18.921875 -3.15625 Z M 15.78125 -18.921875 L 15.78125 -28.390625 L 18.921875 -28.390625 L 18.921875 -18.921875 Z M 15.78125 -18.921875 "/></g></g></g><g fill="#000000" fill-opacity="1"><g transform="translate(23.703097, 333.89512)"><g><path d="M 9.46875 -9.46875 L 6.3125 -9.46875 L 6.3125 -15.78125 L 0 -15.78125 L 0 -18.921875 L 6.3125 -18.921875 L 6.3125 -25.234375 L 9.46875 -25.234375 L 9.46875 -18.921875 L 15.78125 -18.921875 L 15.78125 -15.78125 L 9.46875 -15.78125 Z M 9.46875 -9.46875 "/></g></g></g><g fill="#000000" fill-opacity="1"><g transform="translate(45.835408, 333.89512)"><g><path d="M 0 -9.46875 L 3.15625 -9.46875 L 3.15625 -3.15625 L 0 -3.15625 Z M 0 -15.78125 L 0 -28.390625 L 3.15625 -28.390625 L 3.15625 -15.78125 Z M 3.15625 0 L 3.15625 -3.15625 L 15.78125 -3.15625 L 15.78125 0 Z M 3.15625 -12.625 L 3.15625 -15.78125 L 15.78125 -15.78125 L 15.78125 -28.390625 L 18.921875 -28.390625 L 18.921875 -3.15625 L 15.78125 -3.15625 L 15.78125 -12.625 Z M 3.15625 -28.390625 L 3.15625 -31.546875 L 15.78125 -31.546875 L 15.78125 -28.390625 Z M 3.15625 -28.390625 "/></g></g></g><g fill="#000000" fill-opacity="1"><g transform="translate(71.12185, 333.89512)"><g><path d="M 0 -28.390625 L 3.15625 -28.390625 L 3.15625 -25.234375 L 0 -25.234375 Z M 3.15625 -28.390625 L 3.15625 -31.546875 L 15.78125 -31.546875 L 15.78125 -28.390625 Z M 6.3125 0 L 6.3125 -15.78125 L 9.46875 -15.78125 L 9.46875 0 Z M 9.46875 -15.78125 L 9.46875 -18.921875 L 15.78125 -18.921875 L 15.78125 -15.78125 Z M 15.78125 -18.921875 L 15.78125 -28.390625 L 18.921875 -28.390625 L 18.921875 -18.921875 Z M 15.78125 -18.921875 "/></g></g></g><g fill="#000000" fill-opacity="1"><g transform="translate(96.408292, 333.89512)"><g><path d="M 18.921875 -3.15625 L 15.78125 -3.15625 L 15.78125 -15.78125 L 18.921875 -15.78125 Z M 0 -3.15625 L 0 -9.46875 L 3.15625 -9.46875 L 3.15625 -3.15625 Z M 0 -18.921875 L 0 -28.390625 L 3.15625 -28.390625 L 3.15625 -18.921875 Z M 3.15625 0 L 3.15625 -3.15625 L 15.78125 -3.15625 L 15.78125 0 Z M 3.15625 -15.78125 L 3.15625 -18.921875 L 15.78125 -18.921875 L 15.78125 -15.78125 Z M 3.15625 -28.390625 L 3.15625 -31.546875 L 15.78125 -31.546875 L 15.78125 -28.390625 Z M 15.78125 -25.234375 L 15.78125 -28.390625 L 18.921875 -28.390625 L 18.921875 -25.234375 Z M 15.78125 -25.234375 "/></g></g></g><g fill="#000000" fill-opacity="1"><g transform="translate(121.694734, 333.89512)"><g><path d="M 0 -28.390625 L 3.15625 -28.390625 L 3.15625 -25.234375 L 0 -25.234375 Z M 3.15625 -28.390625 L 3.15625 -31.546875 L 15.78125 -31.546875 L 15.78125 -28.390625 Z M 6.3125 0 L 6.3125 -15.78125 L 9.46875 -15.78125 L 9.46875 0 Z M 9.46875 -15.78125 L 9.46875 -18.921875 L 15.78125 -18.921875 L 15.78125 -15.78125 Z M 15.78125 -18.921875 L 15.78125 -28.390625 L 18.921875 -28.390625 L 18.921875 -18.921875 Z M 15.78125 -18.921875 "/></g></g></g><g fill="#000000" fill-opacity="1"><g transform="translate(146.981176, 333.89512)"><g><path d="M 0 -28.390625 L 3.15625 -28.390625 L 3.15625 -25.234375 L 0 -25.234375 Z M 3.15625 -28.390625 L 3.15625 -31.546875 L 15.78125 -31.546875 L 15.78125 -28.390625 Z M 6.3125 0 L 6.3125 -15.78125 L 9.46875 -15.78125 L 9.46875 0 Z M 9.46875 -15.78125 L 9.46875 -18.921875 L 15.78125 -18.921875 L 15.78125 -15.78125 Z M 15.78125 -18.921875 L 15.78125 -28.390625 L 18.921875 -28.390625 L 18.921875 -18.921875 Z M 15.78125 -18.921875 "/></g></g></g><g fill="#000000" fill-opacity="1"><g transform="translate(172.267618, 333.89512)"><g><path d="M 0 -15.78125 L 3.15625 -15.78125 L 3.15625 -3.15625 L 0 -3.15625 Z M 0 -18.921875 L 0 -28.390625 L 3.15625 -28.390625 L 3.15625 -18.921875 Z M 3.15625 0 L 3.15625 -3.15625 L 15.78125 -3.15625 L 15.78125 0 Z M 3.15625 -15.78125 L 3.15625 -18.921875 L 15.78125 -18.921875 L 15.78125 -15.78125 Z M 3.15625 -28.390625 L 3.15625 -31.546875 L 15.78125 -31.546875 L 15.78125 -28.390625 Z M 15.78125 -3.15625 L 15.78125 -15.78125 L 18.921875 -15.78125 L 18.921875 -3.15625 Z M 15.78125 -18.921875 L 15.78125 -28.390625 L 18.921875 -28.390625 L 18.921875 -18.921875 Z M 15.78125 -18.921875 "/></g></g></g><g fill="#000000" fill-opacity="1"><g transform="translate(197.55406, 333.89512)"><g><path d="M 0 -9.46875 L 3.15625 -9.46875 L 3.15625 -3.15625 L 0 -3.15625 Z M 0 -15.78125 L 0 -28.390625 L 3.15625 -28.390625 L 3.15625 -15.78125 Z M 3.15625 0 L 3.15625 -3.15625 L 15.78125 -3.15625 L 15.78125 0 Z M 3.15625 -12.625 L 3.15625 -15.78125 L 15.78125 -15.78125 L 15.78125 -28.390625 L 18.921875 -28.390625 L 18.921875 -3.15625 L 15.78125 -3.15625 L 15.78125 -12.625 Z M 3.15625 -28.390625 L 3.15625 -31.546875 L 15.78125 -31.546875 L 15.78125 -28.390625 Z M 3.15625 -28.390625 "/></g></g></g><g fill="#000000" fill-opacity="1"><g transform="translate(222.84049, 333.89512)"><g><path d="M 6.3125 -28.390625 L 9.46875 -28.390625 L 9.46875 0 L 6.3125 0 Z M 0 -28.390625 L 0 -31.546875 L 6.3125 -31.546875 L 6.3125 -28.390625 Z M 0 -28.390625 "/></g></g></g><g fill="#000000" fill-opacity="1"><g transform="translate(238.66453, 333.89512)"><g><path d="M 0 -31.546875 L 3.15625 -31.546875 L 3.15625 -18.921875 L 0 -18.921875 Z M 3.15625 -15.78125 L 3.15625 -18.921875 L 15.78125 -18.921875 L 15.78125 -15.78125 Z M 15.78125 0 L 15.78125 -15.78125 L 18.921875 -15.78125 L 18.921875 0 Z M 15.78125 -18.921875 L 15.78125 -31.546875 L 18.921875 -31.546875 L 18.921875 -18.921875 Z M 15.78125 -18.921875 "/></g></g></g><g fill="#000000" fill-opacity="1"><g transform="translate(263.950972, 333.89512)"><g><path d="M 0 -31.546875 L 3.15625 -31.546875 L 3.15625 -18.921875 L 0 -18.921875 Z M 3.15625 -15.78125 L 3.15625 -18.921875 L 15.78125 -18.921875 L 15.78125 -15.78125 Z M 15.78125 0 L 15.78125 -15.78125 L 18.921875 -15.78125 L 18.921875 0 Z M 15.78125 -18.921875 L 15.78125 -31.546875 L 18.921875 -31.546875 L 18.921875 -18.921875 Z M 15.78125 -18.921875 "/></g></g></g><g fill="#000000" fill-opacity="1"><g transform="translate(289.237414, 333.89512)"><g><path d="M 0 -9.46875 L 3.15625 -9.46875 L 3.15625 -3.15625 L 0 -3.15625 Z M 0 -22.078125 L 0 -28.390625 L 3.15625 -28.390625 L 3.15625 -22.078125 Z M 3.15625 0 L 3.15625 -3.15625 L 15.78125 -3.15625 L 15.78125 0 Z M 3.15625 -28.390625 L 3.15625 -31.546875 L 15.78125 -31.546875 L 15.78125 -28.390625 Z M 6.3125 -15.78125 L 6.3125 -18.921875 L 15.78125 -18.921875 L 15.78125 -15.78125 Z M 15.78125 -3.15625 L 15.78125 -15.78125 L 18.921875 -15.78125 L 18.921875 -3.15625 Z M 15.78125 -18.921875 L 15.78125 -28.390625 L 18.921875 -28.390625 L 18.921875 -18.921875 Z M 15.78125 -18.921875 "/></g></g></g></svg>
